<?xml version="1.0" standalone="no"?>
<!DOCTYPE svg PUBLIC "-//W3C//DTD SVG 20010904//EN"
 "http://www.w3.org/TR/2001/REC-SVG-20010904/DTD/svg10.dtd">
<svg version="1.0" xmlns="http://www.w3.org/2000/svg"
 width="640.000000pt" height="800.000000pt" viewBox="0 0 640.000000 800.000000"
 preserveAspectRatio="xMidYMid meet">

<g transform="translate(0.000000,800.000000) scale(0.100000,-0.100000)"
fill="#000000" stroke="none">
<path d="M3860 7459 c0 -11 -22 -19 -77 -27 -43 -7 -97 -16 -120 -21 -42 -8
-80 1 -52 12 10 4 9 6 -3 6 -9 1 -18 -3 -20 -7 -6 -16 -58 -24 -58 -9 0 9 -14
12 -47 11 -70 -2 -153 -15 -153 -23 0 -9 -86 -50 -116 -56 -32 -5 -54 -19
-178 -109 -15 -11 -25 -25 -22 -32 3 -7 0 -11 -7 -8 -16 6 -60 -52 -52 -66 4
-6 1 -9 -6 -8 -7 2 -19 -14 -27 -35 -13 -33 -13 -40 -1 -48 11 -7 11 -9 -3 -9
-19 0 -23 -17 -9 -39 7 -11 11 -10 20 7 6 11 11 30 11 42 0 25 25 76 43 87 12
7 26 26 69 92 10 14 18 22 18 18 0 -5 7 -1 16 8 25 25 30 8 7 -23 -42 -57 -50
-84 -44 -152 3 -36 10 -64 16 -62 11 3 35 -78 35 -118 0 -24 -1 -23 -16 7 -9
18 -27 39 -40 48 -13 8 -24 22 -24 30 0 19 -14 19 -30 0 -8 -9 -10 -29 -7 -49
7 -46 -5 -55 -20 -14 -13 33 -13 33 -8 3 5 -26 4 -27 -6 -11 -9 15 -13 16 -20
5 -5 -8 -9 -25 -9 -38 0 -20 -3 -22 -12 -13 -18 18 -28 15 -28 -9 0 -28 -23
-19 -31 12 -5 20 -7 21 -13 7 -4 -9 -3 -25 3 -37 14 -25 14 -31 0 -31 -5 0 -7
5 -4 10 3 6 0 10 -8 10 -20 0 -31 -31 -15 -41 10 -7 8 -18 -9 -51 -19 -36 -28
-67 -32 -111 -1 -5 -9 -6 -19 -3 -34 11 -112 -98 -112 -156 0 -18 -5 -28 -15
-28 -12 0 -15 -12 -14 -52 1 -40 3 -47 8 -28 6 22 8 18 15 -23 4 -27 15 -56
24 -65 10 -10 16 -26 14 -36 -3 -13 0 -17 10 -13 8 3 21 1 28 -3 10 -6 6 -11
-15 -16 -24 -6 -32 -2 -52 22 -27 34 -31 19 -5 -25 9 -17 25 -31 35 -31 9 0
17 -5 17 -11 0 -5 5 -7 10 -4 6 3 10 -5 10 -19 0 -14 -4 -28 -10 -31 -6 -4 -5
-13 2 -25 7 -10 16 -16 20 -14 5 3 8 -25 7 -63 -1 -37 1 -88 6 -112 5 -29 4
-41 -3 -37 -6 4 -8 -2 -5 -14 4 -14 1 -19 -8 -15 -9 3 -14 -3 -15 -20 -2 -21
-24 -55 -38 -55 -2 0 -7 8 -9 18 -4 14 -5 14 -6 1 -2 -29 39 -70 68 -68 14 1
34 1 44 1 18 -2 17 -3 -1 -29 -10 -16 -17 -34 -15 -41 7 -19 23 -4 23 23 0 34
17 35 90 2 60 -27 68 -29 109 -18 30 8 47 8 56 1 8 -6 27 -7 51 -2 33 7 39 12
39 34 0 14 3 30 8 34 11 11 9 26 -3 19 -5 -3 -10 -1 -10 4 0 6 -6 11 -14 11
-17 0 -28 24 -20 44 10 26 -28 65 -61 66 -17 0 -36 -5 -41 -10 -16 -16 -64 5
-64 28 0 11 -3 41 -6 68 -6 41 -4 47 7 37 18 -18 58 -16 65 2 10 24 31 17 44
-15 14 -33 19 -34 104 -16 43 9 62 18 67 32 4 10 19 47 33 82 35 84 35 146 1
168 -20 13 -24 22 -18 43 l6 26 -23 -20 c-17 -15 -37 -20 -84 -21 -33 -1 -85
-6 -115 -11 -91 -17 -87 -26 -85 170 2 155 5 180 28 253 21 66 34 89 66 118
24 21 50 36 65 36 14 0 25 5 25 10 0 6 7 10 15 10 9 0 12 6 9 18 -4 10 -3 13
3 6 4 -6 19 -15 31 -19 28 -8 27 -3 -20 116 -23 57 -29 84 -23 105 7 26 8 27
15 9 7 -17 9 -16 10 10 2 28 3 27 11 -10 4 -22 10 -66 13 -98 4 -59 29 -113
46 -102 6 4 10 -3 10 -13 0 -14 8 -21 30 -24 17 -3 30 0 30 5 0 5 14 7 31 3
23 -4 41 0 64 14 34 21 172 44 200 34 8 -4 21 -1 29 5 16 13 56 16 208 12 85
-2 108 -6 112 -18 5 -11 15 -14 35 -10 34 7 58 -12 39 -31 -9 -9 -8 -12 5 -12
9 0 17 -4 17 -10 0 -5 6 -7 13 -4 8 3 18 -6 25 -21 6 -14 16 -25 21 -25 6 0 8
-7 4 -16 -3 -8 0 -26 7 -39 11 -20 10 -28 -4 -49 -15 -24 -15 -26 4 -36 15 -8
18 -15 12 -28 -5 -9 -8 -36 -8 -59 2 -42 12 -57 110 -163 23 -25 35 -50 40
-83 4 -26 11 -47 16 -47 5 0 7 -7 4 -15 -4 -8 -3 -23 1 -32 4 -10 9 -25 11
-33 1 -8 9 -40 18 -70 9 -30 16 -64 16 -75 0 -11 7 -33 15 -49 9 -17 13 -42
10 -62 -3 -19 -7 -49 -10 -68 -4 -22 -12 -36 -25 -39 -13 -3 -17 -11 -13 -26
3 -12 1 -21 -6 -21 -6 0 -11 -4 -11 -10 0 -12 -37 -50 -49 -50 -5 0 -12 -16
-15 -35 -4 -20 -13 -35 -21 -35 -8 0 -19 -8 -24 -17 -9 -16 -10 -16 -11 -1 0
11 -6 15 -18 11 -14 -3 -17 -12 -14 -37 5 -41 -15 -57 -36 -30 -13 18 -14 16
-9 -16 2 -21 -1 -39 -9 -48 -8 -7 -14 -19 -14 -25 0 -8 3 -7 9 2 5 7 14 10 20
7 13 -9 15 -46 2 -46 -5 0 -17 -7 -25 -16 -17 -17 -15 -19 -31 31 -6 21 -15
19 -54 -14 -19 -17 -38 -28 -43 -25 -4 3 -8 -6 -8 -20 0 -14 5 -26 11 -26 7 0
9 -12 7 -30 -3 -17 -1 -33 4 -36 14 -9 9 -24 -7 -18 -8 4 -15 12 -15 20 0 8
-7 22 -16 33 -14 16 -21 17 -46 7 -26 -10 -31 -8 -48 14 -10 13 -21 44 -25 69
-5 34 -19 58 -57 103 -28 32 -59 58 -69 58 -10 0 -21 5 -24 10 -3 6 -17 10
-31 10 -13 0 -33 9 -44 20 -12 12 -25 18 -30 15 -5 -3 -11 -1 -15 5 -10 16 5
50 21 50 9 0 14 11 13 33 0 30 -17 84 -18 62 -1 -5 -7 1 -14 15 -7 13 -22 29
-34 35 -11 6 -27 16 -34 22 -8 5 -26 13 -41 17 -37 9 -38 -15 -2 -39 22 -14
28 -15 35 -4 6 9 9 10 9 2 0 -6 9 -14 19 -18 21 -6 37 -53 23 -67 -6 -6 -18
-6 -31 1 -11 6 -31 16 -42 22 -12 6 -38 20 -58 31 -37 21 -79 21 -133 -1 -40
-15 -39 -69 2 -108 17 -15 30 -36 30 -46 0 -26 -19 -59 -31 -52 -5 4 -9 0 -9
-7 0 -9 -3 -9 -10 2 -6 9 -10 11 -10 3 0 -7 -6 -10 -14 -7 -22 9 -25 -9 -6
-39 20 -32 29 -35 41 -15 7 10 9 9 9 -4 0 -22 64 -36 85 -18 10 8 15 9 15 2 0
-17 -35 -32 -75 -32 -29 0 -39 -5 -53 -30 -20 -35 -31 -37 -56 -9 -15 18 -15
23 -5 30 8 5 17 9 22 9 8 0 10 70 1 70 -3 0 -24 -18 -46 -40 -23 -22 -35 -40
-28 -40 10 0 10 -3 1 -14 -14 -17 0 -29 23 -20 22 8 20 -8 -5 -51 -18 -29 -20
-45 -15 -83 4 -26 8 -55 9 -64 1 -20 6 -22 26 -9 8 5 12 18 8 30 -3 14 0 21 9
21 8 0 14 9 14 20 0 12 17 38 38 60 35 38 40 40 105 41 69 2 94 -4 58 -16 -12
-4 -18 -12 -14 -21 3 -9 -2 -14 -16 -15 -35 -2 -40 -4 -52 -16 -6 -6 -8 -17
-3 -24 4 -8 7 -30 5 -50 -4 -59 20 -95 71 -104 24 -4 55 -7 71 -6 33 3 36 -14
5 -23 -19 -5 -20 -8 -8 -16 12 -7 12 -12 3 -21 -9 -9 -18 -10 -37 -1 -14 6
-41 8 -60 5 -27 -4 -36 -2 -36 8 0 11 -2 11 -10 -1 -5 -8 -5 -17 0 -20 4 -3 2
-14 -6 -25 -14 -19 -15 -19 -20 3 -7 26 -33 30 -35 5 -1 -10 -4 -4 -8 12 l-7
30 -11 -42 c-7 -27 -7 -41 -1 -37 6 4 8 -2 6 -12 -2 -11 -11 -18 -20 -16 -30
5 -28 -16 2 -27 17 -5 30 -13 30 -17 0 -3 -7 -4 -15 -1 -10 4 -17 -4 -24 -29
-8 -29 -7 -38 9 -54 10 -10 22 -15 25 -12 13 12 -7 -42 -21 -55 -7 -7 -19 -10
-27 -7 -35 13 -158 -143 -171 -219 -7 -37 -21 -59 -46 -72 -41 -21 -59 -19
-66 10 -3 14 -10 25 -15 25 -12 0 0 -53 14 -61 5 -4 6 -12 3 -18 -4 -6 -1 -11
8 -11 8 0 17 6 20 13 3 6 2 -1 -1 -18 -3 -16 -10 -33 -16 -36 -5 -4 -1 -11 9
-17 16 -9 17 -11 1 -27 -15 -15 -21 -13 -18 8 0 4 -6 7 -14 7 -8 0 -15 4 -15
8 0 5 -16 25 -35 45 -19 20 -35 45 -35 55 0 27 -26 35 -59 18 -15 -8 -34 -14
-41 -14 -34 2 -51 -3 -45 -12 3 -5 1 -10 -4 -10 -18 0 -62 -75 -55 -94 4 -11
2 -16 -7 -14 -7 2 -13 -2 -14 -9 0 -7 -6 -18 -13 -25 -16 -16 -16 -35 1 -41 9
-4 9 -8 -2 -15 -7 -5 -10 -15 -7 -21 5 -7 -1 -11 -14 -11 -17 0 -19 -3 -10
-19 14 -27 13 -32 -7 -29 -14 2 -18 -3 -16 -25 1 -15 -2 -25 -7 -22 -14 8 -23
-16 -11 -28 17 -17 13 -29 -9 -22 -25 8 -27 -13 -2 -31 15 -12 14 -13 -10 -14
-18 0 -28 -5 -28 -15 0 -8 5 -15 10 -15 6 0 10 -5 10 -11 0 -6 -6 -9 -14 -6
-20 8 -28 -4 -15 -20 9 -10 7 -13 -6 -13 -15 0 -15 -2 -4 -16 11 -13 10 -17
-3 -25 -10 -5 -14 -17 -11 -29 4 -15 0 -20 -15 -20 -24 0 -35 -23 -19 -39 8
-8 5 -11 -10 -11 -26 0 -33 -17 -21 -49 6 -16 5 -27 -2 -31 -7 -4 -5 -18 5
-41 27 -58 32 -64 51 -67 10 -2 29 -13 40 -23 14 -13 35 -20 60 -20 66 1 84
-3 84 -17 0 -7 8 -12 18 -10 9 1 29 -6 44 -16 17 -11 35 -15 48 -11 11 4 20 2
20 -4 0 -15 27 -14 32 0 3 8 10 6 20 -5 20 -19 49 -21 67 -3 11 10 13 10 7 0
-14 -25 18 -13 40 14 20 25 23 26 40 13 11 -9 15 -10 10 -2 -12 20 39 14 65
-8 l24 -19 -47 -1 c-26 0 -65 -7 -87 -16 -33 -13 -50 -14 -112 -4 -41 6 -81
12 -89 12 -8 0 -19 4 -25 8 -5 4 -55 20 -110 35 -107 29 -141 44 -193 87 -18
15 -44 31 -57 34 -32 8 -31 17 4 90 38 79 117 263 126 294 4 14 11 30 15 35 4
6 13 28 20 50 7 22 16 45 20 50 4 6 15 34 25 64 15 45 15 55 4 62 -11 7 -9 9
6 9 17 0 45 38 45 61 0 8 -52 -1 -67 -13 -6 -5 -17 -8 -25 -7 -15 3 -101 -22
-108 -32 -3 -3 -11 -8 -19 -11 -8 -2 -15 -13 -16 -25 -1 -15 4 -21 22 -21 18
0 23 5 21 21 -4 27 22 35 29 8 4 -15 14 -21 37 -22 66 -3 -47 -18 -136 -18
-127 -1 -258 -36 -479 -126 -148 -60 -219 -98 -196 -103 10 -2 30 4 45 14 52
35 127 65 153 62 14 -2 31 2 38 10 9 9 17 10 23 4 7 -7 32 2 74 25 56 30 64
32 64 16 -1 -27 -25 -54 -43 -47 -8 3 -18 0 -22 -7 -5 -7 -3 -10 6 -7 23 8 39
-23 22 -40 -9 -9 -12 -24 -9 -38 6 -24 -7 -33 -19 -14 -7 12 -25 4 -25 -11 0
-5 7 -9 15 -9 18 0 19 -4 3 -30 -10 -16 -10 -24 0 -41 15 -24 15 -24 -16 -34
-21 -6 -22 -5 -14 12 13 25 23 85 14 79 -4 -3 -14 -1 -22 5 -10 6 -11 9 -2 9
6 0 12 5 12 10 0 15 -69 9 -82 -7 -12 -15 -3 -47 11 -38 6 3 7 13 4 22 -4 10
-2 14 6 12 7 -3 14 -23 16 -46 3 -34 0 -42 -16 -46 -10 -3 -19 -1 -19 5 0 5
-5 6 -10 3 -12 -7 19 -54 37 -55 6 0 15 -5 19 -11 9 -15 -36 -1 -54 17 -19 20
-24 17 -17 -8 6 -17 4 -20 -9 -15 -10 4 -15 3 -11 -3 3 -6 1 -10 -4 -10 -6 0
-11 7 -11 16 0 8 -5 12 -10 9 -6 -4 -8 -10 -5 -15 9 -15 -6 -60 -21 -60 -8 0
-14 -9 -14 -20 0 -18 -3 -19 -20 -10 -11 6 -28 10 -38 8 -28 -5 -28 40 0 52
19 9 17 9 -14 5 -45 -7 -54 5 -27 36 14 16 30 23 55 22 34 0 45 8 52 37 6 29
7 100 2 100 -14 0 -28 -24 -23 -39 4 -12 2 -11 -9 3 -8 10 -21 16 -29 13 -10
-4 -9 -6 4 -6 10 -1 15 -5 12 -11 -3 -5 -1 -20 6 -32 12 -22 12 -22 -13 -6
-25 17 -26 16 -20 -4 4 -17 2 -19 -14 -10 -39 19 -88 -10 -104 -62 -20 -68
-28 -90 -36 -110 -5 -14 -4 -17 4 -12 7 4 12 2 12 -3 0 -6 -4 -11 -10 -11 -5
0 -10 -12 -10 -28 0 -15 -4 -42 -9 -60 -6 -19 -6 -45 -1 -63 7 -23 6 -31 -6
-36 -8 -3 -16 -4 -18 -2 -3 5 12 254 18 291 2 15 8 32 12 39 5 9 2 10 -10 6
-10 -4 -20 -7 -22 -7 -2 0 -4 -6 -4 -14 0 -7 -7 -19 -15 -26 -17 -14 -21 -35
-5 -25 19 11 10 -10 -9 -25 -11 -7 -18 -17 -15 -22 3 -4 0 -8 -5 -8 -6 0 -11
-7 -11 -15 0 -8 -6 -15 -14 -15 -8 0 -18 -5 -21 -11 -8 -11 13 -69 25 -69 6 0
14 -21 40 -102 5 -17 5 -28 -1 -28 -5 0 -9 8 -9 18 0 9 -13 23 -28 30 -16 6
-39 30 -51 53 -13 22 -25 38 -27 36 -6 -6 18 -71 33 -85 7 -7 13 -22 13 -32 0
-27 -23 -16 -55 27 -35 44 -43 35 -16 -17 28 -54 26 -62 -5 -25 -14 17 -23 23
-21 14 3 -10 -7 -34 -22 -55 -15 -22 -32 -55 -38 -74 -6 -19 -22 -66 -36 -105
-35 -101 -57 -179 -57 -204 0 -12 -7 -24 -15 -27 -8 -4 -15 -17 -15 -30 0 -13
-4 -24 -9 -24 -13 0 -23 -37 -27 -101 -2 -38 -13 -75 -33 -115 -23 -43 -28
-60 -18 -66 6 -4 8 -8 2 -8 -13 0 -36 -50 -24 -50 5 0 9 -7 9 -16 0 -9 -6 -14
-13 -11 -10 4 -13 -2 -9 -18 2 -12 -1 -26 -7 -29 -6 -4 -11 -20 -11 -37 0 -16
-4 -29 -10 -29 -5 0 -10 -13 -10 -30 0 -16 -5 -30 -11 -30 -5 0 -8 -4 -5 -9 3
-5 -3 -11 -14 -14 -11 -3 -20 -1 -20 4 0 5 5 9 10 9 6 0 10 5 10 10 0 16 -36
12 -59 -7 -12 -10 -23 -27 -23 -39 -1 -11 -9 -27 -17 -34 -13 -12 -14 -12 -9
2 12 29 -4 28 -32 -2 -15 -16 -31 -46 -35 -67 -5 -26 -9 -33 -15 -23 -5 8 -10
12 -12 10 -19 -30 -27 -52 -22 -63 3 -8 -2 -21 -11 -30 -12 -12 -12 -17 -3
-23 9 -6 5 -10 -12 -14 -18 -4 -25 -13 -25 -30 0 -14 -5 -25 -12 -25 -19 0
-73 -45 -73 -61 0 -8 -4 -13 -8 -10 -8 5 -52 -45 -52 -59 0 -3 -15 -20 -33
-37 -22 -22 -38 -53 -52 -99 -12 -39 -33 -81 -50 -101 -27 -30 -30 -39 -29
-98 3 -176 3 -170 24 -170 19 0 19 -2 6 -22 -8 -13 -18 -51 -22 -85 -6 -59
-17 -79 -27 -50 -4 9 -7 9 -18 -1 -18 -17 -37 -15 -42 5 -4 17 -5 17 -6 1 -1
-21 -12 -23 -28 -7 -8 8 -14 5 -23 -11 -9 -16 -15 -19 -24 -10 -18 14 -46 2
-46 -21 0 -12 -5 -16 -14 -13 -8 3 -26 -3 -40 -13 -24 -17 -25 -22 -26 -125
l0 -107 42 39 c44 40 63 49 70 29 2 -7 18 -6 47 4 41 15 44 14 48 -4 7 -27 20
-24 27 7 5 17 12 24 21 20 8 -3 17 -1 20 4 10 16 23 11 30 -11 6 -17 12 -20
33 -14 15 3 37 7 49 8 12 1 25 5 29 9 4 5 19 8 33 8 21 0 23 -2 11 -10 -13 -8
-13 -11 -1 -19 7 -5 10 -14 6 -21 -6 -9 -9 -9 -15 0 -6 10 -12 9 -29 -2 -11
-8 -19 -17 -16 -19 2 -3 -12 -6 -32 -7 -41 -3 -63 -17 -63 -39 0 -8 -4 -11
-10 -8 -5 3 -10 -1 -10 -9 0 -9 -3 -15 -7 -14 -15 5 -129 -83 -147 -113 -13
-22 -17 -43 -13 -71 3 -23 1 -48 -4 -57 -5 -9 -13 -28 -19 -44 -5 -15 -16 -27
-25 -27 -32 0 -16 -26 48 -74 28 -21 53 -34 60 -29 7 4 25 6 40 4 19 -2 37 5
53 20 l24 22 0 -30 c0 -16 3 -33 7 -36 7 -8 60 22 116 66 37 29 61 31 39 4 -7
-8 -9 -16 -6 -20 3 -3 -4 -10 -15 -17 -12 -6 -19 -15 -16 -20 3 -5 -13 -19
-35 -30 -22 -11 -49 -29 -58 -38 -10 -9 -44 -41 -76 -70 -37 -34 -56 -58 -52
-67 7 -20 0 -19 -38 5 -69 43 -123 133 -146 243 -6 31 -13 57 -16 57 -2 0 -4
-148 -4 -330 l0 -330 250 0 c160 0 250 4 250 10 0 6 -4 10 -9 10 -5 0 -11 7
-15 15 -9 25 10 17 24 -10 12 -22 20 -25 64 -25 l51 1 -35 32 c-33 29 -109 86
-149 112 -9 6 -20 16 -25 24 -4 7 -17 20 -27 29 -10 9 -19 20 -19 25 0 5 7 4
15 -3 23 -19 41 -7 20 14 -13 13 -15 20 -6 25 6 4 9 15 5 24 -4 12 -1 17 10
17 9 0 16 6 16 14 0 8 11 24 24 37 13 13 21 29 18 38 -3 9 -1 12 6 7 7 -4 12
-3 12 2 0 5 -9 12 -20 15 -14 4 -19 12 -18 28 2 15 -2 24 -12 24 -14 0 -16 20
-5 53 6 16 25 15 25 -2 0 -7 10 -33 23 -57 13 -24 21 -52 19 -61 -2 -10 0 -18
5 -18 5 0 16 -13 26 -29 20 -34 12 -65 -22 -93 -35 -30 -27 -66 29 -120 27
-27 50 -53 50 -59 0 -14 41 -48 58 -49 6 0 12 11 12 25 0 14 5 25 10 25 6 0
10 6 10 13 0 7 11 24 25 39 14 15 25 31 25 36 0 4 14 21 30 37 17 16 30 32 30
36 0 4 18 36 40 70 53 84 90 164 90 194 0 14 5 25 10 25 16 0 12 -76 -5 -90
-9 -7 -24 -32 -35 -54 -10 -23 -30 -58 -44 -78 l-25 -37 20 -40 c25 -53 24
-58 -10 -63 -17 -2 -28 -2 -26 2 2 3 0 12 -6 20 -7 13 -9 13 -9 -1 0 -8 -8
-24 -18 -35 -9 -11 -28 -41 -42 -68 -14 -27 -33 -53 -43 -60 -9 -6 -17 -14
-17 -18 0 -5 58 -8 129 -8 l128 0 23 62 c28 77 77 169 144 270 40 60 62 83
101 105 l50 27 -18 -25 c-10 -13 -20 -32 -24 -42 -6 -18 -23 -24 -23 -7 0 6
-4 10 -10 10 -5 0 -10 -6 -10 -13 0 -8 -9 -22 -20 -32 -11 -10 -17 -22 -14
-26 3 -5 -1 -6 -9 -3 -10 3 -23 -13 -42 -51 -15 -31 -25 -59 -22 -61 8 -8 47
20 47 33 0 7 4 13 9 13 5 0 15 16 22 35 7 19 18 35 25 35 16 0 84 64 84 79 0
9 5 9 21 1 17 -9 23 -8 35 7 7 10 14 21 14 26 0 4 11 7 24 7 16 0 26 -7 31
-23 7 -21 7 -21 13 -2 4 11 15 21 25 21 13 1 17 -6 17 -33 0 -27 -3 -34 -15
-29 -8 3 -15 1 -15 -3 0 -11 31 -25 51 -22 21 2 41 -22 33 -42 -3 -8 -20 -18
-39 -21 -34 -7 -49 -25 -39 -50 3 -7 -3 -16 -13 -20 -15 -6 -15 -8 -3 -16 20
-13 62 -2 82 21 9 10 21 19 27 19 6 0 15 9 20 19 8 14 7 22 -4 31 -19 16 -19
40 0 40 8 0 15 4 15 10 0 5 7 7 15 4 8 -4 12 -10 9 -15 -3 -5 -9 -7 -14 -4 -5
3 -11 1 -15 -5 -6 -10 40 -26 63 -22 25 5 13 -54 -18 -87 -32 -33 -58 -39 -79
-18 -10 10 -11 7 -6 -16 6 -21 4 -26 -7 -22 -8 3 -26 -5 -41 -19 -20 -19 -27
-21 -27 -9 0 9 -6 13 -15 9 -11 -4 -15 1 -15 18 0 13 -6 24 -13 23 -33 -1 -47
4 -47 18 0 8 7 15 15 15 8 0 15 9 15 20 0 23 -4 24 -31 10 -11 -6 -19 -21 -19
-35 0 -13 -5 -27 -10 -30 -6 -4 -7 -11 -4 -17 4 -7 9 -6 14 1 5 9 10 8 19 -2
9 -11 8 -17 -4 -27 -10 -9 -15 -9 -15 -1 0 6 -7 11 -16 11 -8 0 -12 -5 -9 -10
3 -6 -1 -13 -9 -16 -9 -3 -16 -12 -16 -19 0 -20 -27 -38 -36 -24 -4 7 0 18 11
25 10 8 18 28 19 51 2 21 6 46 11 57 5 12 3 21 -6 27 -22 14 -34 4 -31 -24 2
-19 -1 -27 -12 -27 -9 0 -16 -7 -16 -16 0 -10 -6 -14 -14 -11 -10 4 -12 0 -9
-14 3 -10 1 -19 -5 -19 -5 0 -12 10 -15 22 -5 18 -8 19 -21 8 -9 -7 -16 -17
-16 -22 0 -5 -10 -19 -21 -31 l-22 -22 5 27 c3 15 1 33 -3 40 -7 10 -9 9 -9
-3 0 -9 -7 -22 -15 -29 -8 -7 -20 -31 -27 -54 -6 -22 -18 -47 -27 -54 -12 -10
6 -12 97 -12 70 0 112 4 112 10 0 6 10 15 23 21 12 6 29 23 36 40 7 16 17 29
23 29 7 0 6 -5 -1 -14 -9 -11 -9 -16 0 -21 6 -4 9 -19 5 -36 l-5 -29 67 0 c77
1 106 16 108 58 0 17 7 28 19 30 10 3 15 0 11 -7 -4 -6 -2 -11 3 -11 18 0 12
-22 -11 -47 l-21 -23 66 0 c61 0 82 9 57 25 -11 7 14 49 30 51 6 1 15 2 21 3
5 0 7 6 3 12 -4 8 -9 7 -15 -2 -7 -11 -9 -11 -9 2 0 9 12 21 26 28 19 8 25 17
21 31 -3 11 -2 18 3 15 4 -3 11 3 15 13 6 15 8 15 15 -5 10 -24 2 -63 -11 -63
-5 0 -15 -12 -22 -27 -6 -16 -22 -36 -34 -46 -13 -10 -23 -23 -23 -28 0 -15
272 -11 293 5 25 19 22 48 -5 44 -34 -5 -33 20 2 41 37 22 62 20 134 -14 28
-13 63 -23 78 -23 16 0 44 -13 66 -31 l40 -31 255 0 c253 0 255 0 358 30 167
48 182 53 227 72 40 17 44 17 71 0 15 -9 26 -22 24 -29 -3 -7 6 -14 19 -17 25
-5 112 -24 142 -31 11 -2 24 -9 30 -15 11 -11 150 -14 143 -2 -3 4 -35 18 -71
32 -36 13 -66 30 -66 36 0 32 23 233 40 349 10 72 21 168 25 215 3 47 10 117
15 155 51 387 76 615 90 825 17 271 17 329 0 333 -10 3 -7 7 10 15 19 8 21 11
7 11 -16 1 -18 9 -12 84 5 78 3 90 -34 198 -22 63 -69 178 -105 256 -121 263
-238 575 -264 706 -10 50 -20 77 -29 77 -7 0 -13 7 -13 15 0 8 5 15 10 15 23
0 7 55 -30 106 -23 30 -38 59 -34 65 6 10 65 39 79 39 16 0 1 -22 -20 -30 -25
-10 -25 -10 -10 -47 9 -21 24 -47 34 -58 13 -13 20 -43 24 -90 7 -78 4 -67 77
-290 48 -147 161 -436 180 -460 5 -6 18 -37 31 -70 12 -33 28 -69 36 -80 13
-18 14 -16 8 25 -54 353 -266 1080 -316 1080 -8 0 -8 4 -1 13 8 10 6 22 -8 45
-11 18 -20 47 -20 65 0 18 -4 37 -10 43 -26 26 -39 189 -41 525 -2 135 0 151
22 197 13 28 28 51 32 52 4 0 47 -38 95 -84 129 -124 236 -203 302 -220 24 -7
24 -7 5 9 -11 8 -27 21 -35 28 -17 14 -22 17 -50 24 -11 3 -20 9 -20 14 0 4
-13 22 -30 40 -21 24 -26 35 -17 41 9 6 9 8 0 8 -7 0 -12 12 -12 28 1 26 -1
37 -13 72 -44 128 -72 236 -76 294 -2 39 -9 79 -13 88 -14 26 6 31 56 14 25
-9 71 -18 102 -21 123 -11 158 -18 193 -36 51 -27 76 -53 91 -93 10 -28 19
-36 43 -39 29 -4 29 -5 9 -12 -26 -8 -31 -25 -8 -25 8 0 15 -4 15 -10 0 -5 17
-10 39 -10 39 0 72 -22 51 -35 -13 -8 -32 4 -25 16 4 5 -3 9 -15 9 -12 0 -18
-4 -15 -10 3 -5 0 -8 -7 -5 -17 6 -48 -15 -31 -21 7 -3 9 -12 6 -20 -5 -14 11
-19 52 -14 16 2 17 0 6 -14 -16 -19 -8 -21 17 -5 19 12 45 2 100 -37 21 -15
22 -15 16 0 -4 11 -1 16 14 16 11 0 25 7 32 15 9 10 33 15 79 16 49 0 60 3 44
9 -23 9 -53 67 -53 102 0 16 -5 19 -25 16 -21 -5 -25 -2 -20 13 4 13 1 19 -9
19 -9 0 -13 6 -10 13 3 8 -6 18 -21 25 -14 6 -25 15 -26 19 0 5 -2 16 -4 25
-2 9 3 19 11 22 8 3 14 14 12 23 -2 14 3 17 22 15 54 -7 72 -3 94 17 12 12 28
21 34 21 7 0 12 7 12 15 0 9 11 20 25 25 16 6 23 15 19 24 -9 24 15 58 35 51
12 -3 21 0 25 10 3 8 14 15 25 15 20 0 61 43 61 66 0 7 6 15 13 17 7 3 7 6 1
6 -13 1 6 71 18 71 5 0 8 7 8 16 0 8 4 12 10 9 6 -3 7 1 4 10 -4 9 1 24 11 35
10 11 20 34 24 52 9 43 38 50 46 11 4 -15 9 -35 12 -43 3 -8 7 -26 9 -40 6
-51 36 -140 46 -140 5 0 8 -9 8 -21 0 -19 1 -19 16 -4 21 21 56 15 61 -10 15
-72 14 -122 -2 -138 -16 -17 -12 -43 6 -32 5 3 6 0 3 -8 -3 -10 2 -14 16 -13
21 1 75 80 65 95 -8 13 -13 201 -6 206 4 2 21 -4 37 -14 36 -22 43 -65 14 -83
-24 -16 -25 -24 -3 -32 11 -5 28 5 52 27 20 19 53 40 74 47 20 6 37 18 37 26
0 8 5 14 10 14 6 0 10 5 10 10 0 12 15 32 43 58 9 9 17 22 17 29 0 7 4 13 10
13 5 0 6 8 3 17 -6 15 -8 14 -16 -5 -6 -12 -16 -22 -24 -22 -8 0 -11 5 -7 11
4 7 7 25 6 41 -1 25 3 29 19 25 10 -3 19 -3 19 -1 0 8 -34 59 -46 69 -16 14
-30 60 -15 51 6 -4 11 0 11 11 0 14 2 15 9 5 11 -19 15 -19 34 -4 11 10 21 11
35 3 10 -5 28 -7 40 -4 27 7 28 -1 2 -27 -11 -11 -20 -24 -20 -30 0 -14 52 10
72 34 12 15 18 17 18 7 0 -8 3 -11 7 -8 9 10 3 118 -8 139 -5 10 -6 18 -2 18
5 0 8 18 6 40 -1 32 2 40 15 41 13 0 12 2 -4 9 -32 13 -38 29 -20 49 9 10 16
26 16 37 0 11 9 30 21 43 16 17 24 20 35 10 21 -18 63 -2 76 29 6 15 15 36 20
48 13 27 6 70 -10 66 -6 -1 -12 5 -12 13 0 8 9 15 20 15 12 0 37 9 58 19 41
21 82 61 63 61 -8 0 -9 5 -1 19 5 11 10 28 9 38 0 15 -2 15 -9 -3 -12 -29 -30
-40 -41 -23 -7 11 -9 11 -9 -2 0 -21 -29 -46 -62 -54 -27 -7 -34 0 -29 28 1 5
-8 6 -19 2 -11 -4 -20 -2 -20 4 0 6 -7 11 -15 11 -19 0 -19 2 6 45 19 31 19
34 3 28 -14 -5 -16 -3 -9 13 12 29 15 84 5 84 -6 0 -10 6 -10 14 0 8 -4 18
-10 21 -5 3 -3 -12 4 -33 9 -25 11 -44 4 -55 -5 -9 -6 -17 -2 -17 3 0 1 -7 -6
-15 -13 -16 -35 -21 -26 -6 4 5 -7 12 -24 16 -16 4 -30 11 -30 16 0 5 -11 14
-25 19 -14 6 -33 25 -41 42 -8 18 -20 41 -27 51 -10 15 -8 21 13 37 14 10 22
22 18 26 -4 4 -13 2 -20 -3 -7 -6 -25 -13 -41 -15 -23 -5 -27 -2 -22 13 4 12
-1 22 -15 29 -23 12 -28 35 -5 26 8 -3 15 -1 15 4 0 6 -6 10 -13 10 -6 0 -18
15 -25 33 -43 105 -67 157 -89 195 -20 36 -22 43 -9 48 20 8 16 30 -15 79 -35
55 -57 124 -51 163 3 25 1 32 -13 32 -14 0 -16 6 -11 28 5 22 4 24 -4 9 -13
-20 -37 -11 -82 31 -15 14 -31 23 -34 19 -8 -7 -36 7 -65 31 -11 9 -24 18 -29
18 -6 1 -14 2 -19 3 -8 1 -24 34 -26 53 -1 14 -15 21 -15 7 -1 -9 -7 -6 -20 9
-20 24 -17 57 4 45 6 -4 5 1 -3 10 -16 20 -25 23 -15 5 5 -9 4 -10 -3 -3 -14
13 -27 75 -16 75 14 -1 74 -87 94 -137 13 -30 18 -37 14 -18 -7 34 -38 98 -64
131 -9 12 -51 52 -94 89 -42 37 -74 72 -71 76 3 5 -2 9 -11 9 -9 0 -14 4 -11
9 4 5 -3 7 -13 4 -11 -3 -34 2 -52 11 -37 18 -159 22 -176 5 -18 -18 -112 -13
-134 7 -15 14 -19 14 -19 3z m239 -23 c-12 -10 -59 -15 -59 -6 0 5 14 10 32
10 17 0 29 -2 27 -4z m136 -38 c25 -12 45 -26 45 -31 0 -5 -6 -6 -12 -3 -7 2
-37 12 -67 21 -38 12 -50 20 -40 26 20 12 23 12 74 -13z m-135 -41 c19 -11 32
-17 28 -13 -4 5 -1 15 7 22 18 19 25 18 26 -3 0 -10 3 -13 5 -7 3 6 16 9 29 6
27 -5 45 -22 23 -22 -9 0 -9 -3 2 -10 22 -14 33 -12 26 5 -4 12 0 14 22 9 38
-9 54 -18 81 -48 18 -19 20 -26 10 -26 -8 0 -21 6 -29 13 -12 10 -12 9 -1 -5
7 -10 19 -18 26 -18 6 0 17 -11 23 -25 6 -14 10 -25 8 -25 -2 0 -36 16 -75 35
-39 19 -74 35 -78 35 -5 0 -24 10 -43 22 -19 13 -42 23 -50 23 -26 1 -140 47
-140 57 0 14 59 -1 100 -25z m-800 -31 c0 -3 -4 -8 -10 -11 -5 -3 -10 -1 -10
4 0 6 5 11 10 11 6 0 10 -2 10 -4z m-85 -101 c-8 -27 -12 -52 -9 -57 9 -15
-21 -43 -46 -43 -14 0 -30 -7 -37 -15 -19 -25 -27 -3 -14 40 9 29 18 41 37 46
18 5 22 10 14 18 -7 9 -5 19 6 32 14 18 15 18 8 -6 -6 -24 -5 -23 22 7 15 18
29 31 31 29 2 -1 -4 -24 -12 -51z m-215 -65 c0 -5 -4 -10 -10 -10 -5 0 -10 5
-10 10 0 6 5 10 10 10 6 0 10 -4 10 -10z m76 -87 l-15 -48 0 37 c-1 43 20 103
26 76 2 -9 -3 -38 -11 -65z m1654 -232 c0 -5 3 -18 6 -28 6 -16 5 -16 -9 2
-19 23 -21 35 -7 35 6 0 10 -4 10 -9z m-2064 -413 c-3 -13 -6 -33 -6 -46 0
-13 -4 -20 -10 -17 -11 7 -13 45 -4 69 9 25 27 19 20 -6z m4 -98 c0 -11 -4
-20 -10 -20 -5 0 -10 9 -10 20 0 11 5 20 10 20 6 0 10 -9 10 -20z m494 -255
c6 -16 2 -18 -31 -9 -30 8 -29 19 1 22 13 1 27 -5 30 -13z m-305 -45 c5 -17 6
-28 2 -25 -5 3 -11 -2 -15 -10 -12 -33 -23 -13 -13 25 6 22 12 40 13 40 1 0 7
-14 13 -30z m-9 -69 c0 -6 -4 -13 -10 -16 -5 -3 -10 1 -10 9 0 9 5 16 10 16 6
0 10 -4 10 -9z m30 -11 c0 -5 -5 -10 -11 -10 -5 0 -7 5 -4 10 3 6 8 10 11 10
2 0 4 -4 4 -10z m2357 -59 c2 -34 0 -42 -11 -38 -8 3 -17 1 -19 -6 -2 -7 -10
7 -16 30 -6 23 -16 45 -21 48 -20 12 0 22 32 16 29 -6 32 -10 35 -50z m-738
-42 c-11 -27 -17 -54 -14 -60 11 -17 50 -9 95 21 25 16 51 30 58 30 15 0 16
-22 0 -38 -11 -11 21 -10 85 3 9 2 17 0 17 -3 -1 -13 -27 -42 -38 -42 -6 0
-13 -9 -17 -19 -3 -11 -29 -31 -57 -45 -90 -45 -167 -28 -153 34 4 17 1 31 -8
38 -18 16 -7 95 18 122 28 31 35 14 14 -41z m129 22 c3 -15 -1 -22 -9 -19 -7
2 -13 14 -14 26 -2 29 19 22 23 -7z m67 -31 c-3 -5 -11 -10 -16 -10 -6 0 -7 5
-4 10 3 6 11 10 16 10 6 0 7 -4 4 -10z m-1918 -81 c-14 -8 -22 -8 -30 0 -8 8
-3 11 19 11 25 -1 27 -2 11 -11z m1653 -56 c0 -21 -3 -24 -9 -14 -5 8 -7 20
-4 28 8 21 13 15 13 -14z m-1120 -79 c0 -8 -5 -12 -10 -9 -6 4 -8 11 -5 16 9
14 15 11 15 -7z m879 -98 c8 -10 7 -20 -5 -42 -13 -23 -15 -24 -11 -7 3 13 1
26 -4 29 -12 7 -12 34 0 34 5 0 14 -6 20 -14z m68 -48 c-3 -8 -6 -5 -6 6 -1
11 2 17 5 13 3 -3 4 -12 1 -19z m-674 -108 c9 0 17 -4 17 -8 0 -4 -8 -8 -17
-9 -55 -3 -73 -8 -69 -20 6 -15 4 -15 -18 -7 -40 15 4 59 49 49 11 -3 28 -5
38 -5z m-250 -76 c-7 -19 -23 -7 -23 18 0 17 3 18 14 8 8 -6 12 -18 9 -26z
m287 20 c0 -8 -4 -12 -10 -9 -5 3 -10 10 -10 16 0 5 5 9 10 9 6 0 10 -7 10
-16z m250 -4 c0 -5 -2 -10 -4 -10 -3 0 -8 5 -11 10 -3 6 -1 10 4 10 6 0 11 -4
11 -10z m-264 -64 c16 -34 -3 -52 -29 -28 -19 16 -20 16 -14 -6 4 -18 2 -22
-9 -18 -8 3 -17 0 -20 -8 -7 -18 -50 -14 -46 4 6 23 23 40 42 40 9 0 25 9 35
20 23 26 28 25 41 -4z m1304 -41 c-7 -9 -15 -13 -18 -10 -3 2 1 11 8 20 7 9
15 13 18 10 3 -2 -1 -11 -8 -20z m-370 -95 c0 -5 -5 -10 -11 -10 -5 0 -7 5 -4
10 3 6 8 10 11 10 2 0 4 -4 4 -10z m-723 -453 c-2 -6 -17 -11 -33 -11 -24 0
-29 4 -29 25 0 13 1 27 3 32 5 11 63 -34 59 -46z m218 -117 c-3 -5 -12 -10
-20 -10 -8 0 -17 5 -20 10 -4 6 5 10 20 10 15 0 24 -4 20 -10z m-195 -30 c0
-5 -11 -10 -25 -10 -14 0 -25 5 -25 10 0 6 11 10 25 10 14 0 25 -4 25 -10z
m-1146 -39 c7 -10 -33 -23 -47 -14 -10 6 11 23 30 23 6 0 14 -4 17 -9z m-29
-61 c17 -7 14 -9 -13 -9 -20 -1 -31 3 -27 9 7 12 13 12 40 0z m-25 -71 c0 -10
-23 -17 -37 -11 -23 8 -14 22 12 20 14 -1 25 -6 25 -9z m-240 -9 c0 -5 -4 -10
-10 -10 -5 0 -10 5 -10 10 0 6 5 10 10 10 6 0 10 -4 10 -10z m204 -49 c10 -15
-5 -41 -23 -42 -10 0 -11 -2 -3 -6 6 -2 12 -11 12 -19 0 -11 -4 -12 -19 -3
-18 12 -18 49 0 49 5 0 9 7 9 15 0 17 16 20 24 6z m-434 -56 c0 -19 -21 -19
-46 0 -18 14 -17 14 14 15 22 0 32 -5 32 -15z m84 0 c-4 -8 -8 -15 -10 -15 -2
0 -4 7 -4 15 0 8 4 15 10 15 5 0 7 -7 4 -15z m-176 -7 c-3 -7 -13 -15 -24 -17
-16 -3 -17 -1 -5 13 16 19 34 21 29 4z m72 -43 c0 -20 -17 -38 -24 -26 -4 6
-2 11 3 11 19 0 12 19 -11 31 -18 9 -20 9 -15 -4 3 -8 -3 -23 -14 -33 -10 -9
-19 -12 -19 -6 0 6 5 14 10 17 6 4 10 12 9 18 -4 35 1 38 31 20 17 -9 30 -22
30 -28z m-120 21 c0 -2 -8 -10 -17 -17 -16 -13 -17 -12 -4 4 13 16 21 21 21
13z m545 -8 c26 -12 34 -28 13 -28 -15 1 -48 24 -48 34 0 9 5 8 35 -6z m-508
-24 c-9 -9 -28 6 -21 18 4 6 10 6 17 -1 6 -6 8 -13 4 -17z m-42 -13 c3 -5 1
-12 -5 -16 -5 -3 -10 -1 -10 5 0 6 -5 8 -12 4 -7 -4 -8 -3 -4 4 9 14 23 15 31
3z m35 -11 c0 -5 -2 -10 -4 -10 -3 0 -8 5 -11 10 -3 6 -1 10 4 10 6 0 11 -4
11 -10z m505 -30 c8 -13 3 -13 -30 0 -14 5 -23 14 -20 20 7 11 39 -2 50 -20z
m-498 -4 c-2 -6 -13 -12 -25 -14 -12 -2 -22 -8 -22 -13 0 -5 -9 -20 -20 -31
-17 -18 -22 -20 -33 -9 -9 11 -9 14 1 18 6 3 12 11 12 19 0 9 4 13 9 10 5 -3
11 2 13 12 3 11 16 17 37 18 19 1 30 -3 28 -10z m73 4 c0 -5 -4 -10 -10 -10
-5 0 -10 5 -10 10 0 6 5 10 10 10 6 0 10 -4 10 -10z m398 -51 c7 -12 12 -22
10 -24 -8 -8 -69 26 -63 35 11 17 39 11 53 -11z m-38 -51 c0 -6 8 -17 18 -24
15 -11 12 -12 -20 -11 -31 2 -38 6 -38 23 0 11 3 23 6 27 8 8 34 -3 34 -15z
m70 -48 c0 -5 -4 -10 -10 -10 -5 0 -10 5 -10 10 0 6 5 10 10 10 6 0 10 -4 10
-10z m-93 -32 c32 -23 46 -52 19 -42 -9 3 -17 -3 -21 -17 -6 -18 -1 -28 19
-45 30 -26 32 -34 10 -34 -8 0 -12 5 -9 10 3 6 0 10 -8 10 -8 0 -20 6 -27 14
-6 8 -17 13 -24 10 -15 -6 -41 40 -32 55 4 6 14 11 22 11 10 0 13 7 8 25 -8
31 0 31 43 3z m-872 -28 c-5 -15 -10 -19 -17 -12 -7 7 -6 15 3 25 18 19 23 14
14 -13z m255 -5 c0 -8 -6 -15 -14 -15 -17 0 -28 14 -19 24 12 12 33 6 33 -9z
m-35 -55 c4 -6 -5 -10 -20 -10 -15 0 -24 4 -20 10 3 6 12 10 20 10 8 0 17 -4
20 -10z m745 -38 c0 -10 -5 -10 -21 -2 -16 9 -18 14 -8 26 10 12 14 12 20 2 5
-7 9 -19 9 -26z m-141 16 c16 -10 17 -13 5 -26 -13 -12 -17 -12 -34 3 -11 10
-20 22 -20 27 0 12 27 10 49 -4z m-344 -8 c-3 -5 -12 -10 -18 -10 -7 0 -6 4 3
10 19 12 23 12 15 0z m65 -16 c0 -12 -26 -30 -38 -26 -18 6 -15 20 6 25 27 7
32 7 32 1z m409 -36 c-10 -7 -8 -8 9 -5 12 3 22 2 22 -3 0 -13 -27 -19 -38 -8
-13 13 -4 40 10 32 6 -4 5 -10 -3 -16z m-188 -21 c-10 -9 -11 -8 -5 6 3 10 9
15 12 12 3 -3 0 -11 -7 -18z m-581 3 c0 -5 -4 -10 -10 -10 -5 0 -10 5 -10 10
0 6 5 10 10 10 6 0 10 -4 10 -10z m760 -20 c0 -5 -2 -10 -4 -10 -3 0 -8 5 -11
10 -3 6 -1 10 4 10 6 0 11 -4 11 -10z m144 -88 c-6 -4 -13 -15 -17 -24 -6 -17
-27 -25 -27 -11 0 11 33 43 44 43 8 0 8 -2 0 -8z m137 -11 c-12 -8 -51 -4 -51
5 0 2 15 4 33 4 22 0 28 -3 18 -9z m189 -11 c0 -13 -11 -13 -30 0 -12 8 -11
10 8 10 12 0 22 -4 22 -10z m-225 -9 c-7 -12 -64 -25 -72 -17 -7 7 35 24 60
25 10 1 16 -3 12 -8z m120 0 c-6 -5 -21 -12 -35 -16 -22 -7 -23 -6 -11 9 7 9
23 16 34 16 13 0 17 -4 12 -9z m-910 -30 c-3 -6 -14 -11 -23 -11 -13 0 -13 2
4 14 21 15 30 14 19 -3z m1043 -10 c3 -8 0 -11 -6 -7 -5 3 -12 -1 -16 -9 -3
-8 -10 -15 -15 -15 -6 0 -8 7 -5 15 6 13 -6 20 -28 16 -5 0 -8 4 -8 10 0 15
73 6 78 -10z m-1059 -39 c6 -12 5 -23 -4 -35 -16 -22 -26 -9 -23 27 3 30 13
34 27 8z m-525 -41 c-8 -38 -8 -74 -1 -106 2 -11 0 -25 -5 -32 -5 -7 -6 -22
-2 -35 9 -29 14 -64 14 -106 -1 -26 3 -32 17 -30 12 2 17 -2 15 -14 -2 -10 2
-18 8 -18 6 0 8 -12 5 -30 -4 -21 0 -36 10 -47 11 -10 13 -19 6 -26 -5 -5 -7
-16 -4 -23 3 -8 2 -22 -1 -31 -6 -14 -9 -13 -21 10 -7 14 -11 35 -8 47 3 11
-1 27 -8 36 -10 13 -10 17 2 25 11 7 8 9 -11 10 -14 0 -19 3 -12 6 6 2 12 12
12 21 0 14 -2 14 -9 3 -8 -12 -11 -12 -23 0 -8 8 -18 21 -21 29 -4 8 -5 -4 -3
-27 4 -44 -7 -59 -17 -22 -3 12 -10 18 -16 14 -20 -12 -24 26 -5 45 11 11 24
25 31 33 10 13 20 139 22 279 1 29 4 36 16 32 12 -5 14 -15 9 -43z m-104 9 c0
-5 -5 -10 -11 -10 -5 0 -7 5 -4 10 3 6 8 10 11 10 2 0 4 -4 4 -10z m807 -12
c-3 -8 -6 -5 -6 6 -1 11 2 17 5 13 3 -3 4 -12 1 -19z m933 -24 c0 -2 -7 -4
-15 -4 -8 0 -15 4 -15 10 0 5 7 7 15 4 8 -4 15 -8 15 -10z m-1096 -90 c3 -8 2
-12 -4 -9 -6 3 -10 10 -10 16 0 14 7 11 14 -7z m-589 -14 c-3 -5 -12 -10 -18
-10 -7 0 -6 4 3 10 19 12 23 12 15 0z m715 6 c0 -3 -4 -8 -10 -11 -5 -3 -10
-1 -10 4 0 6 5 11 10 11 6 0 10 -2 10 -4z m1023 -36 c3 -11 2 -20 -2 -20 -14
0 -31 24 -31 43 0 16 3 17 14 8 8 -6 16 -21 19 -31z m-1173 -5 c0 -18 7 -26
25 -31 l24 -6 -29 -31 c-23 -25 -27 -34 -17 -46 9 -11 9 -15 0 -18 -7 -3 -13
-18 -13 -34 0 -17 4 -28 9 -24 16 9 22 -12 16 -49 -5 -25 -11 -33 -22 -29 -10
4 -13 14 -9 34 3 18 1 29 -6 29 -7 0 -9 28 -5 93 4 50 7 102 7 115 0 12 5 22
10 22 6 0 10 -11 10 -25z m60 -65 c0 -5 -5 -10 -11 -10 -5 0 -7 5 -4 10 3 6 8
10 11 10 2 0 4 -4 4 -10z m114 -126 c3 -8 2 -12 -4 -9 -6 3 -10 10 -10 16 0
14 7 11 14 -7z m-119 -96 c-4 -18 -11 -35 -17 -39 -6 -4 -7 -12 -4 -18 4 -6 3
-11 -3 -11 -5 0 -11 6 -14 13 -3 9 -8 9 -21 -2 -12 -10 -20 -11 -27 -4 -14 14
15 60 42 68 10 4 19 11 19 16 0 5 7 9 15 9 12 0 14 -8 10 -32z m109 -24 c9
-22 8 -24 -9 -18 -8 4 -15 12 -15 20 0 19 16 18 24 -2z m-689 -4 c-3 -5 -10
-10 -16 -10 -5 0 -9 5 -9 10 0 6 7 10 16 10 8 0 12 -4 9 -10z m598 -77 c-9
-24 -22 -13 -18 15 5 39 6 39 14 17 5 -11 6 -26 4 -32z m-63 -3 c0 -5 -2 -10
-4 -10 -3 0 -8 5 -11 10 -3 6 -1 10 4 10 6 0 11 -4 11 -10z m-440 -10 c0 -5
-2 -10 -4 -10 -3 0 -8 5 -11 10 -3 6 -1 10 4 10 6 0 11 -4 11 -10z m-70 -20
c0 -5 -5 -10 -11 -10 -5 0 -7 5 -4 10 3 6 8 10 11 10 2 0 4 -4 4 -10z m467
-32 c-3 -8 -6 -5 -6 6 -1 11 2 17 5 13 3 -3 4 -12 1 -19z m-487 -93 c0 -5 -5
-3 -10 5 -5 8 -10 20 -10 25 0 6 5 3 10 -5 5 -8 10 -19 10 -25z m1690 -615 c0
-5 -4 -10 -10 -10 -5 0 -10 5 -10 10 0 6 5 10 10 10 6 0 10 -4 10 -10z m285
-20 c3 -5 1 -10 -4 -10 -6 0 -11 5 -11 10 0 6 2 10 4 10 3 0 8 -4 11 -10z
m-348 -22 c-3 -8 -6 -5 -6 6 -1 11 2 17 5 13 3 -3 4 -12 1 -19z m-1406 -31
c-10 -9 -11 -8 -5 6 3 10 9 15 12 12 3 -3 0 -11 -7 -18z m1584 7 c19 -14 16
-15 -30 -10 -27 2 -56 5 -63 5 -7 1 -10 6 -7 11 9 15 77 11 100 -6z m71 -21
c-11 -11 -17 4 -9 23 7 18 8 18 11 1 2 -10 1 -21 -2 -24z m123 21 c6 4 11 0
11 -8 0 -9 -9 -16 -20 -16 -14 0 -20 7 -20 23 0 16 3 18 9 8 5 -7 14 -10 20
-7z m-79 -14 c0 -5 -4 -10 -9 -10 -6 0 -13 5 -16 10 -3 6 1 10 9 10 9 0 16 -4
16 -10z m-323 -22 c-3 -8 -6 -5 -6 6 -1 11 2 17 5 13 3 -3 4 -12 1 -19z m66
-8 c-3 -11 -10 -20 -15 -20 -6 0 -7 7 -4 16 3 9 6 20 6 25 0 6 4 8 9 5 5 -3 7
-15 4 -26z m-1359 -33 c5 -20 13 -37 17 -37 4 0 5 -9 2 -20 -4 -16 -2 -19 11
-14 10 4 16 1 16 -7 0 -11 3 -11 10 1 9 13 12 12 25 -4 8 -11 15 -26 15 -34 0
-7 5 -10 10 -7 6 4 10 -5 10 -19 0 -14 -5 -26 -11 -26 -20 0 -121 110 -115
125 3 8 1 15 -4 15 -5 0 -10 10 -12 23 -2 12 -9 21 -16 20 -6 -2 -12 3 -12 10
0 8 10 13 23 12 17 -1 24 -10 31 -38z m1504 29 c2 -3 1 -13 -3 -23 -7 -17 -8
-17 -15 2 -5 11 -9 15 -9 8 -1 -14 -63 -13 -73 2 -17 22 -6 28 43 22 29 -4 54
-9 57 -11z m-1586 -36 c0 -16 4 -30 9 -30 5 0 9 -4 9 -10 0 -16 -27 -11 -34 6
-8 21 -8 59 1 67 11 11 16 -1 15 -33z m1648 14 c0 -8 -4 -12 -10 -9 -5 3 -10
10 -10 16 0 5 5 9 10 9 6 0 10 -7 10 -16z m-496 -63 c-4 -17 -9 -30 -11 -27
-3 2 -2 19 2 36 9 41 17 33 9 -9z m416 19 c10 -7 -2 -8 -40 -4 -30 4 -57 8
-59 10 -10 9 86 3 99 -6z m90 -10 c12 -8 11 -10 -7 -10 -13 0 -23 5 -23 10 0
13 11 13 30 0z m-1575 -54 c19 -19 35 -41 35 -50 0 -10 6 -13 15 -10 8 4 15 1
15 -5 0 -6 7 -11 15 -11 16 0 19 -17 9 -44 -5 -12 -11 -9 -35 15 -15 16 -33
29 -39 29 -5 0 -10 4 -10 8 0 5 -11 22 -25 38 -22 25 -34 64 -20 64 2 0 20
-15 40 -34z m1050 -36 c-4 -17 -9 -29 -12 -26 -3 2 -2 19 2 36 4 17 9 29 12
26 3 -2 2 -19 -2 -36z m305 3 c0 -16 -5 -35 -10 -43 -7 -11 -10 -4 -10 28 0
23 5 42 10 42 6 0 10 -12 10 -27z m-1376 -32 c-6 -7 -44 31 -44 43 0 6 11 -1
24 -14 13 -14 22 -27 20 -29z m1481 1 c-2 -15 -4 -36 -4 -46 -1 -14 -4 -17
-11 -10 -7 7 -8 28 -4 52 7 45 25 49 19 4z m34 -13 c-13 -26 -20 -21 -12 9 3
12 9 19 14 16 5 -3 4 -14 -2 -25z m-1221 10 c-2 -6 -8 -10 -13 -10 -5 0 -11 4
-13 10 -2 6 4 11 13 11 9 0 15 -5 13 -11z m-94 -25 c3 -8 2 -12 -4 -9 -6 3
-10 10 -10 16 0 14 7 11 14 -7z m843 -44 c-12 -42 -15 -45 -57 -52 -45 -8 -67
-3 -34 8 48 15 67 31 82 68 20 51 26 35 9 -24z m503 39 c0 -6 -4 -7 -10 -4 -5
3 -10 11 -10 16 0 6 5 7 10 4 6 -3 10 -11 10 -16z m-1466 -42 c10 -10 16 -21
13 -23 -3 -3 -15 4 -26 15 -12 12 -21 18 -21 15 0 -4 -7 -1 -15 6 -8 7 -15 19
-15 28 0 16 17 5 64 -41z m76 4 c0 -6 -4 -13 -10 -16 -5 -3 -10 1 -10 9 0 9 5
16 10 16 6 0 10 -4 10 -9z m835 -1 c-3 -5 -16 -10 -28 -9 -21 0 -21 1 -2 9 28
12 37 12 30 0z m-804 -43 c-8 -8 -11 -7 -11 4 0 9 3 19 7 23 4 4 9 2 11 -4 3
-7 -1 -17 -7 -23z m535 6 c-10 -10 -19 5 -10 18 6 11 8 11 12 0 2 -7 1 -15 -2
-18z m-1836 5 c0 -9 4 -8 11 2 9 13 10 13 6 0 -2 -8 -11 -14 -21 -12 -9 2 -16
-4 -16 -13 0 -34 -31 -65 -65 -65 -18 0 -38 -7 -45 -15 -14 -17 -40 -20 -40
-5 0 6 5 10 12 10 6 0 3 7 -8 15 -17 13 -17 14 -1 15 9 0 17 5 17 12 0 6 3 8
6 5 4 -3 16 0 27 8 19 14 22 13 34 -13 13 -26 13 -26 8 -2 -3 18 3 31 23 47
30 25 52 29 52 11z m1794 -9 c-3 -5 -10 -7 -15 -3 -5 3 -7 10 -3 15 3 5 10 7
15 3 5 -3 7 -10 3 -15z m-113 -12 c-13 -13 -26 -3 -16 12 3 6 11 8 17 5 6 -4
6 -10 -1 -17z m57 12 c-2 -6 -8 -10 -13 -10 -5 0 -11 4 -13 10 -2 6 4 11 13
11 9 0 15 -5 13 -11z m-386 -31 c-9 -9 -12 -7 -12 12 0 19 3 21 12 12 9 -9 9
-15 0 -24z m305 -16 c17 -2 34 -10 37 -18 4 -11 -5 -14 -42 -14 -34 0 -43 3
-32 10 13 9 12 13 -8 28 -18 14 -20 20 -10 30 11 11 14 9 18 -10 4 -17 14 -24
37 -26z m-167 3 c0 -17 -4 -23 -14 -19 -8 3 -12 13 -9 25 7 27 23 24 23 -6z
m60 15 c0 -5 -4 -10 -10 -10 -5 0 -10 5 -10 10 0 6 5 10 10 10 6 0 10 -4 10
-10z m-266 -6 c9 -3 16 -12 16 -20 0 -20 -13 -17 -28 6 -13 22 -12 23 12 14z
m116 -10 c0 -9 -5 -14 -12 -12 -18 6 -21 28 -4 28 9 0 16 -7 16 -16z m553 9
c-7 -2 -21 -2 -30 0 -10 3 -4 5 12 5 17 0 24 -2 18 -5z m-518 -12 c3 -5 1 -12
-5 -16 -5 -3 -10 1 -10 9 0 18 6 21 15 7z m375 -21 c-9 -17 -40 -29 -40 -16 0
18 15 36 31 36 17 0 18 -3 9 -20z m-2050 -17 c0 -8 -4 -11 -10 -8 -5 3 -10 -2
-10 -11 0 -13 -3 -15 -10 -8 -6 6 -8 17 -5 26 7 19 35 19 35 1z m36 4 c8 3 14
0 14 -7 0 -15 -33 -9 -36 8 -1 7 0 8 2 3 3 -6 12 -7 20 -4z m1542 -11 c-7 -8
-15 -12 -17 -11 -5 6 10 25 20 25 5 0 4 -6 -3 -14z m162 -6 c0 -5 -5 -10 -11
-10 -5 0 -7 5 -4 10 3 6 8 10 11 10 2 0 4 -4 4 -10z m573 -42 c-3 -26 -10 -45
-15 -42 -5 3 -6 22 -2 42 13 70 25 70 17 0z m-648 24 c-3 -3 -11 0 -18 7 -9
10 -8 11 6 5 10 -3 15 -9 12 -12z m-84 -74 c5 -10 6 -23 3 -31 -3 -8 2 -19 10
-26 10 -8 13 -23 9 -44 -2 -18 2 -63 11 -100 9 -38 16 -92 16 -120 l-1 -52
-24 28 c-14 15 -25 38 -25 50 0 12 -8 36 -18 52 -11 17 -21 59 -25 94 -3 35
-9 67 -14 72 -4 4 -6 33 -5 64 3 43 7 55 18 51 9 -3 14 1 15 12 0 12 4 9 11
-8 5 -14 14 -33 19 -42z m409 5 c-11 -17 -11 -17 -6 0 3 10 6 24 7 30 0 9 2 9
5 0 3 -7 0 -20 -6 -30z m-2020 -14 c-7 -11 -14 -18 -17 -15 -8 8 5 36 17 36 7
0 7 -6 0 -21z m-36 -14 c-4 -8 -11 -12 -16 -9 -6 4 -5 10 3 15 19 12 19 11 13
-6z m2103 -57 c-3 -7 -5 -2 -5 12 0 14 2 19 5 13 2 -7 2 -19 0 -25z m-20 -115
c-3 -10 -5 -4 -5 12 0 17 2 24 5 18 2 -7 2 -21 0 -30z m-10 -55 c-3 -8 -6 -5
-6 6 -1 11 2 17 5 13 3 -3 4 -12 1 -19z m770 -90 c-3 -7 -5 -2 -5 12 0 14 2
19 5 13 2 -7 2 -19 0 -25z m-737 -78 c0 -5 -2 -10 -4 -10 -3 0 -8 5 -11 10 -3
6 -1 10 4 10 6 0 11 -4 11 -10z m-73 -97 c-3 -10 -5 -4 -5 12 0 17 2 24 5 18
2 -7 2 -21 0 -30z m68 17 c3 -5 2 -10 -4 -10 -5 0 -13 5 -16 10 -3 6 -2 10 4
10 5 0 13 -4 16 -10z m-78 -62 c-3 -8 -6 -5 -6 6 -1 11 2 17 5 13 3 -3 4 -12
1 -19z m-997 -57 c0 -5 -7 -12 -16 -15 -22 -9 -24 -8 -24 9 0 8 9 15 20 15 11
0 20 -4 20 -9z m90 -43 c0 -18 -2 -20 -9 -8 -6 8 -7 18 -5 22 9 14 14 9 14
-14z m887 -10 c-3 -7 -5 -2 -5 12 0 14 2 19 5 13 2 -7 2 -19 0 -25z m-1003 -3
c3 -9 0 -15 -9 -15 -8 0 -15 -4 -15 -10 0 -5 7 -10 15 -10 8 0 15 -7 15 -15 0
-13 -4 -13 -22 -3 -34 19 -39 31 -21 50 20 22 29 23 37 3z m993 -67 c-3 -7 -5
-2 -5 12 0 14 2 19 5 13 2 -7 2 -19 0 -25z m-897 -23 c0 -7 -6 -15 -14 -18 -9
-4 -13 2 -12 17 1 24 26 25 26 1z m33 5 c-3 -11 -7 -20 -9 -20 -2 0 -4 9 -4
20 0 11 4 20 9 20 5 0 7 -9 4 -20z m-848 -49 c-3 -6 -11 -11 -17 -11 -6 0 -6
6 2 15 14 17 26 13 15 -4z m1581 -48 c-11 -11 -19 6 -11 24 8 17 8 17 12 0 3
-10 2 -21 -1 -24z m71 15 c-3 -8 -6 -5 -6 6 -1 11 2 17 5 13 3 -3 4 -12 1 -19z
m-1707 -3 c0 -2 -10 -10 -22 -16 -21 -11 -22 -11 -9 4 13 16 31 23 31 12z
m1820 -39 c0 -2 -7 -6 -15 -10 -8 -3 -15 -1 -15 4 0 6 7 10 15 10 8 0 15 -2
15 -4z m50 -22 c0 -8 -4 -12 -10 -9 -5 3 -10 10 -10 16 0 5 5 9 10 9 6 0 10
-7 10 -16z m-1570 -65 c-14 -11 -36 -28 -50 -39 -26 -21 -40 -25 -40 -12 0 10
104 81 110 75 3 -3 -6 -13 -20 -24z m1397 9 c-3 -8 -6 -5 -6 6 -1 11 2 17 5
13 3 -3 4 -12 1 -19z m-1284 -1 c3 -8 0 -14 -6 -14 -7 0 -19 -4 -28 -7 -10 -5
-16 -2 -16 8 0 8 6 12 14 9 7 -3 13 0 13 6 0 15 17 14 23 -2z m1373 -84 c-10
-10 -19 5 -10 18 6 11 8 11 12 0 2 -7 1 -15 -2 -18z m-1616 -24 c-37 -30 -50
-35 -50 -19 0 12 72 61 79 54 3 -3 -10 -19 -29 -35z m723 -64 c-3 -9 -8 -14
-10 -11 -3 3 -2 9 2 15 9 16 15 13 8 -4z m-333 -9 c0 -2 -7 -9 -15 -16 -13
-11 -14 -10 -9 4 5 14 24 23 24 12z m-91 -85 c-14 -21 -49 -45 -56 -37 -6 5
47 55 60 56 4 0 2 -8 -4 -19z m-692 -57 c13 -14 23 -30 21 -35 -2 -5 -16 7
-31 26 -32 41 -26 47 10 9z m1109 -11 c-7 -7 -26 7 -26 19 0 6 6 6 15 -2 9 -7
13 -15 11 -17z m184 -22 c0 -10 -7 -24 -15 -31 -8 -7 -13 -16 -10 -20 3 -5 -4
-6 -15 -3 -13 3 -20 0 -20 -8 -1 -18 -41 -63 -64 -72 -14 -6 -17 -4 -12 9 3 8
6 24 6 34 0 10 12 23 30 30 17 7 30 18 30 26 0 17 51 65 62 58 4 -3 8 -13 8
-23z m135 -11 c3 -6 -1 -7 -9 -4 -9 3 -16 1 -16 -5 0 -6 -9 -11 -19 -11 -11 0
-22 -6 -24 -12 -4 -10 -6 -10 -6 -1 -1 13 37 43 56 43 6 0 15 -4 18 -10z
m-1325 -103 c0 -6 -9 0 -20 13 -11 13 -20 25 -20 28 0 3 9 -3 20 -13 11 -10
20 -23 20 -28z m696 -34 c-10 -10 -19 5 -10 18 6 11 8 11 12 0 2 -7 1 -15 -2
-18z m254 7 c0 -5 -5 -10 -11 -10 -5 0 -7 5 -4 10 3 6 8 10 11 10 2 0 4 -4 4
-10z m-340 -30 c0 -5 -4 -10 -10 -10 -5 0 -10 5 -10 10 0 6 5 10 10 10 6 0 10
-4 10 -10z"/>
<path d="M4532 5746 c-36 -13 -33 -29 4 -20 13 3 37 1 54 -4 20 -7 32 -8 36
-1 16 27 -45 43 -94 25z"/>
<path d="M1990 3015 c-10 -13 -9 -15 8 -15 15 0 20 5 16 15 -4 8 -7 15 -9 15
-1 0 -8 -7 -15 -15z"/>
<path d="M3122 7015 c0 -16 2 -22 5 -12 2 9 2 23 0 30 -3 6 -5 -1 -5 -18z"/>
<path d="M2764 6833 c-27 -28 -57 -65 -67 -82 -11 -19 8 -5 53 41 38 40 69 77
67 82 -2 6 -26 -13 -53 -41z"/>
<path d="M2735 6724 c-9 -9 -13 -24 -10 -35 4 -13 -6 -32 -34 -62 -23 -24 -41
-47 -41 -51 0 -17 19 0 54 49 22 30 42 55 45 55 3 0 6 14 6 30 0 35 1 34 -20
14z"/>
<path d="M3672 6409 c-24 -5 -69 -20 -99 -34 -31 -14 -70 -27 -88 -29 -42 -5
-64 -18 -93 -50 -19 -22 -26 -25 -43 -16 -17 10 -21 8 -26 -9 -3 -11 -9 -18
-14 -15 -20 12 -7 -36 14 -53 28 -23 47 -65 47 -104 0 -17 6 -32 15 -35 8 -4
15 -13 15 -20 0 -23 27 -27 52 -10 28 20 38 20 38 1 0 -8 -7 -15 -17 -15 -36
0 -1 -12 49 -17 84 -8 118 -4 148 17 15 10 47 22 71 26 48 8 97 32 129 64 11
11 33 20 51 20 38 0 99 28 99 45 0 8 -11 27 -25 43 -29 35 -31 48 -10 60 13 7
11 11 -10 22 -18 9 -25 22 -25 42 0 32 -21 44 -105 58 -87 15 -129 17 -173 9z"/>
<path d="M4980 6355 c-11 -13 -10 -14 4 -9 9 3 16 10 16 15 0 13 -6 11 -20 -6z"/>
<path d="M4140 6306 c0 -7 7 -19 15 -26 12 -10 16 -9 21 3 3 9 3 21 -1 27 -9
15 -35 12 -35 -4z"/>
<path d="M5266 6163 c-6 -14 -5 -15 5 -6 7 7 10 15 7 18 -3 3 -9 -2 -12 -12z"/>
<path d="M3155 5700 c1 -20 32 -60 47 -60 18 0 7 50 -14 64 -29 21 -35 20 -33
-4z"/>
<path d="M3920 5440 c0 -5 5 -10 11 -10 5 0 7 5 4 10 -3 6 -8 10 -11 10 -2 0
-4 -4 -4 -10z"/>
<path d="M3120 5201 c0 -6 -7 -8 -15 -5 -9 4 -18 -1 -21 -11 -11 -27 10 -33
33 -8 12 12 18 25 12 28 -5 4 -9 2 -9 -4z"/>
<path d="M3090 5119 c0 -5 5 -7 10 -4 6 3 10 8 10 11 0 2 -4 4 -10 4 -5 0 -10
-5 -10 -11z"/>
<path d="M3104 5068 c-3 -11 -3 -22 0 -25 3 -4 6 -1 6 5 0 24 19 11 23 -15 3
-21 4 -17 6 13 1 30 -3 41 -14 41 -8 0 -17 -9 -21 -19z"/>
<path d="M3130 4960 c0 -5 5 -10 11 -10 5 0 7 5 4 10 -3 6 -8 10 -11 10 -2 0
-4 -4 -4 -10z"/>
<path d="M4507 4770 c-23 -154 7 -316 72 -394 15 -18 38 -136 46 -236 9 -121
19 -151 70 -205 24 -27 49 -63 55 -81 17 -51 26 -163 18 -234 -4 -36 -12 -171
-17 -300 -6 -129 -13 -240 -15 -246 -3 -7 -22 -8 -58 -3 -181 27 -232 21 -295
-34 -20 -18 -44 -50 -54 -72 -22 -51 -24 -163 -3 -213 20 -50 149 -179 193
-193 38 -13 81 -47 81 -65 0 -6 -7 -17 -15 -24 -13 -10 -19 -10 -34 4 -19 17
-107 26 -128 13 -7 -5 -13 -17 -13 -28 0 -10 -7 -19 -15 -19 -40 0 -98 -35
-122 -73 -22 -36 -24 -44 -14 -76 11 -37 3 -51 -30 -51 -9 0 -27 -23 -43 -56
-27 -55 -27 -58 -21 -192 4 -80 15 -169 26 -214 10 -43 19 -88 19 -101 0 -13
7 -47 15 -75 14 -47 19 -52 45 -52 46 0 142 -90 202 -190 28 -47 57 -92 64
-100 7 -8 17 -35 24 -60 9 -33 26 -58 64 -95 93 -88 134 -237 121 -434 -16
-235 -17 -223 42 -280 57 -54 59 -59 68 -175 6 -64 11 -83 30 -102 37 -37 55
-67 55 -91 l0 -23 730 0 731 0 -4 748 c-2 411 -7 761 -10 777 -6 23 -5 25 2
10 6 -13 10 361 10 1023 1 731 -2 1042 -10 1042 -6 0 -20 -5 -32 -12 -12 -6
-67 -15 -122 -19 -87 -6 -106 -5 -144 12 -28 12 -55 17 -75 13 -17 -3 -44 -1
-59 5 -24 10 -22 4 28 -62 52 -67 142 -226 174 -307 8 -19 27 -65 42 -102 33
-77 38 -108 9 -60 -11 17 -24 32 -30 32 -5 0 -6 8 -3 18 6 15 5 15 -10 3 -9
-7 -17 -19 -17 -26 0 -7 -7 -18 -15 -25 -11 -9 -10 -2 5 31 11 24 19 58 18 74
0 22 -2 24 -5 8 -5 -23 -29 -38 -38 -23 -3 5 0 22 8 37 14 30 12 67 -4 58 -5
-4 -9 -17 -9 -31 0 -14 -4 -23 -9 -20 -5 4 -11 1 -13 -6 -2 -6 -9 -9 -15 -5
-7 5 -8 19 -2 44 17 75 11 112 -31 187 -21 39 -58 91 -80 116 -41 44 -41 45
-35 15 15 -76 21 -115 18 -115 -14 0 -34 33 -42 69 -5 22 -15 47 -22 55 -8 9
-20 22 -27 30 -6 9 -19 13 -27 10 -16 -7 -30 -62 -23 -98 4 -17 1 -23 -9 -19
-20 8 -16 -24 5 -36 11 -7 13 -10 3 -11 -10 0 -12 -10 -7 -40 4 -29 3 -40 -6
-40 -10 0 -10 -2 1 -9 9 -6 11 -16 6 -32 -5 -13 -7 -39 -7 -57 1 -19 -5 -44
-14 -57 -15 -23 -20 -155 -11 -281 5 -66 -8 -161 -25 -181 -7 -9 -14 -35 -14
-58 -1 -24 -5 -48 -9 -55 -15 -24 -28 21 -26 89 0 36 -4 84 -10 106 -5 22 -10
66 -9 98 1 77 -6 100 -31 92 -16 -5 -19 -1 -20 27 -3 75 -2 106 4 115 4 6 6
46 4 89 -2 67 1 83 20 109 34 48 37 71 11 94 -12 12 -28 19 -35 17 -7 -3 -13
2 -13 11 0 9 -3 13 -7 9 -5 -4 -8 -13 -8 -19 0 -7 -13 -13 -30 -15 -16 -2 -34
-8 -39 -13 -13 -12 -46 -12 -46 1 0 6 9 10 21 10 15 0 19 5 15 16 -3 8 -2 13
3 10 5 -3 11 1 15 9 3 8 10 15 16 15 13 0 59 51 60 65 0 6 11 31 24 56 19 38
22 55 16 91 -7 48 7 72 34 62 9 -3 16 -2 16 4 0 12 -24 22 -51 22 -10 0 -19 7
-19 15 0 18 -20 20 -20 3 0 -7 -5 -5 -11 5 -5 9 -21 17 -34 17 -14 0 -25 5
-25 12 0 8 -3 9 -11 1 -12 -12 -61 -5 -53 8 2 5 -7 11 -21 15 -14 3 -25 10
-25 15 0 5 -7 9 -16 9 -14 0 -14 3 -4 15 9 11 16 13 24 5 5 -5 19 -10 31 -11
17 -1 17 -2 -5 -10 -22 -8 -22 -8 7 -4 19 2 56 -5 94 -20 112 -44 72 -20 -94
57 -97 45 -193 82 -239 92 -45 10 -78 23 -78 30 0 22 -21 34 -49 27 -37 -10
-61 -3 -61 19 0 10 -9 22 -20 25 -11 3 -20 12 -20 19 0 7 -21 30 -47 52 -26
21 -59 51 -74 67 -15 15 -33 27 -41 27 -8 -1 -4 -8 10 -20 15 -12 19 -21 11
-25 -14 -9 -24 2 -38 44 -25 76 -85 163 -190 276 -61 66 -111 123 -111 128 0
4 10 12 23 17 17 7 18 9 5 9 -13 1 -18 10 -19 29 0 15 -4 36 -8 47 -6 16 -9
10 -14 -25z m473 -640 c0 -5 -4 -10 -9 -10 -6 0 -13 5 -16 10 -3 6 1 10 9 10
9 0 16 -4 16 -10z m40 -60 c0 -5 -7 -7 -15 -4 -8 4 -12 10 -9 15 6 11 24 2 24
-11z m105 -10 c18 -8 17 -9 -7 -9 -15 -1 -30 4 -33 9 -7 12 12 12 40 0z m40
-41 c35 -11 66 -27 69 -35 3 -8 12 -14 19 -14 8 0 31 -16 52 -35 l37 -36 -36
3 c-20 1 -36 6 -36 10 0 4 4 8 10 8 5 0 7 7 4 15 -4 8 -15 15 -26 15 -10 0
-29 11 -41 24 -24 26 -67 43 -67 27 0 -5 6 -14 13 -18 6 -4 25 -26 42 -48 l29
-39 -27 19 c-14 11 -27 24 -27 29 0 11 -40 46 -52 46 -5 0 -7 4 -3 9 3 5 -5
17 -17 25 -30 21 -20 20 57 -5z m-95 -9 c0 -5 -2 -10 -4 -10 -3 0 -8 5 -11 10
-3 6 -1 10 4 10 6 0 11 -4 11 -10z m205 -20 c8 -13 -5 -13 -25 0 -13 8 -13 10
2 10 9 0 20 -4 23 -10z m70 -24 c19 -8 35 -18 35 -21 0 -3 -4 -3 -10 0 -5 3
-10 1 -10 -5 0 -8 -4 -8 -12 0 -7 6 -22 17 -33 25 -26 19 -13 19 30 1z m-88
-41 c0 -8 -4 -15 -9 -15 -4 0 -8 7 -8 15 0 8 4 15 8 15 5 0 9 -7 9 -15z m33
-49 c0 -3 -4 -8 -10 -11 -5 -3 -10 -1 -10 4 0 6 5 11 10 11 6 0 10 -2 10 -4z
m0 -46 c0 -5 -4 -10 -10 -10 -5 0 -10 5 -10 10 0 6 5 10 10 10 6 0 10 -4 10
-10z m68 -70 c13 -16 19 -30 15 -29 -11 0 -56 59 -46 59 5 0 19 -13 31 -30z
m73 -66 c12 -14 11 -16 -5 -13 -11 2 -21 10 -24 17 -5 17 13 15 29 -4z m-607
-38 c3 -13 -1 -41 -10 -61 -10 -26 -12 -40 -5 -49 8 -9 5 -25 -9 -54 -11 -23
-20 -45 -20 -51 0 -5 -5 -13 -11 -17 -7 -4 -9 0 -5 13 8 26 27 150 28 185 1
15 5 25 11 21 5 -3 6 3 2 16 -3 11 -2 21 3 21 6 0 13 -11 16 -24z m656 -11
c14 -16 10 -18 -14 -9 -9 3 -16 10 -16 15 0 14 16 11 30 -6z m-633 -72 c-28
-31 -39 -29 -24 5 19 42 31 53 38 33 4 -9 -2 -25 -14 -38z m708 7 c21 -22 34
-40 29 -40 -6 0 -23 13 -39 30 -15 16 -32 27 -37 24 -4 -3 -8 2 -8 10 0 25 13
19 55 -24z m-465 -114 c0 -3 -4 -8 -10 -11 -5 -3 -10 -1 -10 4 0 6 5 11 10 11
6 0 10 -2 10 -4z m84 -41 c32 -24 10 -29 -26 -6 -26 16 -29 21 -13 21 11 -1
29 -7 39 -15z m290 6 c3 -5 -1 -12 -10 -15 -27 -11 -37 -7 -24 9 14 17 26 19
34 6z m500 -76 c7 -71 -8 -46 -19 31 -5 33 -4 46 3 39 5 -5 12 -37 16 -70z
m-554 55 c0 -5 -4 -10 -10 -10 -5 0 -10 5 -10 10 0 6 5 10 10 10 6 0 10 -4 10
-10z m-429 -17 c38 -23 38 -38 -1 -18 -16 8 -36 15 -44 15 -8 0 -18 5 -21 10
-10 16 35 11 66 -7z m368 -14 c-19 -12 -39 -11 -39 1 0 6 9 10 20 10 11 0 20
6 21 13 0 8 2 8 6 -2 3 -7 -1 -17 -8 -22z m-71 1 c12 0 22 -5 22 -10 0 -6 -7
-10 -16 -8 -11 2 -18 -5 -19 -18 -1 -12 -28 -51 -59 -85 -51 -56 -129 -164
-162 -224 -36 -66 -52 -94 -75 -130 -47 -76 -109 -212 -138 -304 l-19 -62 39
-36 c21 -20 53 -44 69 -54 l30 -19 0 52 c0 61 6 60 15 -2 5 -36 14 -52 45 -78
22 -18 50 -57 64 -88 34 -75 65 -116 82 -110 11 4 11 2 3 -12 -9 -14 -8 -25 4
-48 8 -16 20 -59 27 -94 14 -83 29 -130 41 -130 5 0 9 -6 9 -12 0 -18 89 -110
132 -136 70 -44 171 -183 153 -212 -3 -5 -24 -10 -46 -10 -27 0 -39 -4 -39
-14 0 -8 -6 -17 -12 -19 -10 -4 -9 -8 2 -16 8 -5 11 -13 7 -17 -4 -4 -15 0
-25 9 -10 10 -26 17 -34 17 -9 0 -18 8 -22 18 -3 9 -9 23 -12 31 -5 10 -2 12
9 8 11 -4 15 0 14 14 -1 13 -9 19 -24 19 -13 0 -23 5 -23 10 0 6 -9 10 -20 10
-21 0 -28 20 -7 21 6 0 2 4 -10 9 -13 5 -23 18 -23 29 0 11 -18 39 -41 63 -23
23 -48 54 -57 68 -30 45 -46 60 -64 60 -10 0 -24 11 -30 25 -6 14 -14 25 -18
25 -4 0 -13 14 -20 30 -7 17 -16 30 -20 30 -10 0 -60 106 -60 126 0 9 12 2 31
-16 18 -16 36 -30 42 -30 5 0 23 -12 40 -26 17 -14 38 -23 48 -21 11 3 21 -4
28 -19 6 -13 15 -24 21 -24 11 0 8 35 -3 46 -4 4 -7 16 -7 27 0 11 -3 17 -6
14 -4 -3 -15 5 -26 18 -12 16 -30 25 -47 25 -15 0 -46 14 -70 32 -37 27 -46
30 -63 19 -15 -9 -24 -9 -46 3 -90 49 -113 57 -148 50 -35 -6 -164 23 -164 38
0 5 -13 8 -29 8 -17 0 -33 5 -36 10 -4 6 -10 8 -15 5 -5 -3 -17 -1 -27 4 -10
5 -26 12 -35 15 -10 3 -18 9 -18 14 0 12 73 12 87 0 15 -12 85 -1 95 15 5 8
43 12 110 12 97 0 149 -10 223 -45 28 -13 115 -29 115 -21 0 3 -17 17 -38 31
-45 30 -82 62 -82 73 0 8 -40 50 -40 41 0 -3 -12 8 -26 26 -18 21 -32 29 -44
25 -26 -8 -70 5 -70 20 0 8 -8 11 -20 8 -14 -4 -22 1 -29 20 -5 14 -14 26 -19
28 -14 6 -25 49 -13 49 6 0 11 -4 11 -10 0 -5 5 -10 11 -10 5 0 7 5 4 10 -10
16 49 12 71 -5 10 -8 22 -15 25 -15 3 0 11 24 19 53 41 162 248 521 382 664
32 34 58 67 58 73 0 7 -10 21 -22 32 l-23 20 25 -6 c14 -3 35 -6 48 -6z m-48
-30 c0 -5 -4 -10 -10 -10 -5 0 -10 5 -10 10 0 6 5 10 10 10 6 0 10 -4 10 -10z
m220 -154 c0 -3 -4 -8 -10 -11 -5 -3 -10 -1 -10 4 0 6 5 11 10 11 6 0 10 -2
10 -4z m-10 -60 c0 -3 -4 -8 -10 -11 -5 -3 -10 -1 -10 4 0 6 5 11 10 11 6 0
10 -2 10 -4z m680 -6 c0 -5 -4 -10 -10 -10 -5 0 -10 5 -10 10 0 6 5 10 10 10
6 0 10 -4 10 -10z m-20 -50 c0 -5 -2 -10 -4 -10 -3 0 -8 5 -11 10 -3 6 -1 10
4 10 6 0 11 -4 11 -10z m-1581 -14 c-2 -2 -24 -6 -49 -9 -30 -4 -38 -3 -25 3
19 8 83 14 74 6z m891 -53 c-10 -16 -11 -15 -6 7 3 14 6 32 7 40 1 8 4 5 6 -7
2 -12 -1 -30 -7 -40z m-959 15 c0 -2 6 -41 13 -88 l13 -85 3 65 c1 36 2 68 1
73 0 4 10 7 22 7 33 0 219 -28 225 -34 2 -3 2 -13 -2 -22 -6 -15 -18 -16 -100
-10 l-94 7 -5 -53 c-4 -29 -9 -83 -13 -121 -3 -37 -10 -69 -14 -72 -15 -10
-40 7 -40 27 0 11 -9 63 -19 116 -11 54 -23 118 -26 145 -7 43 -6 47 14 47 11
0 21 -1 22 -2z m1789 -135 c0 -70 -2 -124 -5 -122 -8 8 -10 257 -2 252 4 -2 7
-61 7 -130z m-1872 95 c-14 -18 -27 -40 -31 -48 -4 -12 -6 -12 -6 2 -1 9 11
30 25 47 34 41 43 40 12 -1z m1022 -75 c0 -29 -2 -29 -19 5 -10 18 -9 22 4 22
10 0 15 -9 15 -27z m-796 -35 c8 -29 22 -75 30 -103 l15 -50 -5 60 c-2 33 -7
77 -10 98 -4 28 -2 37 9 37 20 0 31 -15 59 -87 17 -41 22 -63 14 -66 -6 -2
-17 3 -24 12 -11 14 -12 7 -8 -41 l6 -58 -34 0 c-21 0 -36 6 -40 15 -7 20 -36
19 -51 -2 -7 -9 -19 -14 -27 -11 -12 5 -13 18 -7 70 5 34 11 89 14 121 5 47
10 57 25 57 15 0 23 -13 34 -52z m-267 20 c-3 -8 -6 -5 -6 6 -1 11 2 17 5 13
3 -3 4 -12 1 -19z m1055 -88 c-5 -35 -15 -32 -17 5 0 14 4 25 10 25 7 0 10
-12 7 -30z m-1055 -12 c-3 -7 -5 -2 -5 12 0 14 2 19 5 13 2 -7 2 -19 0 -25z
m23 -53 c0 -5 -5 -3 -10 5 -5 8 -10 20 -10 25 0 6 5 3 10 -5 5 -8 10 -19 10
-25z m1020 5 c0 -5 -4 -10 -10 -10 -5 0 -10 5 -10 10 0 6 5 10 10 10 6 0 10
-4 10 -10z m909 -415 c13 -137 49 -393 58 -415 12 -31 18 -167 7 -167 -6 0 -9
9 -6 20 4 17 -2 54 -39 242 -17 89 -27 168 -32 280 -3 55 -13 174 -21 264 -9
90 -12 169 -8 175 4 6 12 -54 18 -134 7 -80 17 -199 23 -265z m-1880 350 c24
-25 38 -45 33 -45 -5 0 -26 20 -46 45 -21 25 -36 45 -34 45 2 0 23 -20 47 -45z
m141 -29 c0 -2 -11 -6 -25 -8 -13 -3 -22 -1 -19 3 5 9 44 13 44 5z m31 -26
c14 8 19 7 19 -3 0 -9 -15 -13 -47 -14 -46 -1 -47 -1 -23 12 14 7 26 9 28 4 2
-5 12 -5 23 1z m59 -80 c-19 -12 -63 -13 -56 -2 3 5 20 9 38 10 23 1 28 -2 18
-8z m1066 -309 c-4 -5 0 -11 6 -14 7 -2 10 -8 5 -12 -10 -12 -31 11 -23 24 4
6 9 11 12 11 3 0 3 -4 0 -9z m-136 -47 c0 -2 -11 -4 -25 -4 -14 0 -25 4 -25 9
0 4 11 6 25 3 14 -2 25 -6 25 -8z m257 -6 c-3 -8 -6 -5 -6 6 -1 11 2 17 5 13
3 -3 4 -12 1 -19z m-1269 -87 c79 -27 92 -29 92 -17 0 10 72 16 90 7 3 -2 15
-4 28 -5 13 -2 29 -12 38 -24 8 -11 33 -31 55 -44 43 -24 73 -67 63 -91 -2 -7
2 -20 11 -27 18 -15 20 -40 4 -40 -13 0 -81 40 -90 52 -5 8 -103 30 -192 45
-21 3 -40 10 -43 14 -3 5 -13 9 -23 9 -10 0 -31 12 -46 26 -16 15 -39 27 -52
27 -31 0 -46 28 -33 62 11 29 27 30 98 6z m990 -278 c-7 -15 -17 -26 -23 -25
-13 4 -7 40 13 75 l17 29 3 -26 c2 -14 -3 -38 -10 -53z m-823 -37 l39 -17 -25
-13 c-14 -7 -42 -16 -61 -20 -30 -5 -41 -2 -66 19 -16 14 -34 25 -40 25 -5 0
-15 7 -22 15 -11 13 -3 15 61 11 41 -2 92 -11 114 -20z m805 -46 c0 -6 12 -9
28 -8 18 2 27 -2 27 -11 0 -16 -47 -33 -62 -22 -13 8 -23 38 -16 45 10 10 23
7 23 -4z m837 -32 c-3 -7 -5 -2 -5 12 0 14 2 19 5 13 2 -7 2 -19 0 -25z m-755
-30 c-7 -7 -12 -8 -12 -2 0 14 12 26 19 19 2 -3 -1 -11 -7 -17z m63 -78 c3 -5
1 -10 -4 -10 -6 0 -11 5 -11 10 0 6 2 10 4 10 3 0 8 -4 11 -10z m-1085 -10 c0
-5 -4 -10 -10 -10 -5 0 -10 5 -10 10 0 6 5 10 10 10 6 0 10 -4 10 -10z m1191
-45 c27 -20 94 -123 85 -132 -1 -1 -11 0 -23 3 -15 4 -22 16 -26 45 -5 40 -26
69 -49 69 -7 0 -19 9 -26 20 -17 27 -3 25 39 -5z m-92 -15 c11 -24 11 -24 -3
-6 -9 11 -16 24 -16 30 0 12 5 7 19 -24z m-166 -51 c7 -56 0 -71 -32 -67 -22
3 -26 8 -29 43 -3 29 1 43 14 52 30 22 41 15 47 -28z m236 32 c9 -6 10 -11 2
-15 -13 -8 -31 1 -31 15 0 11 11 11 29 0z m-379 -39 c0 -13 -12 -22 -22 -16
-10 6 -1 24 13 24 5 0 9 -4 9 -8z m70 -42 l0 -31 -25 18 c-32 23 -32 43 0 43
21 0 25 -5 25 -30z m-104 -30 c8 0 14 -7 14 -15 0 -23 -38 -18 -51 7 -10 18
-9 20 6 15 9 -4 23 -7 31 -7z m105 -22 c11 0 18 -10 21 -29 3 -16 2 -31 0 -34
-14 -14 -52 -2 -75 25 -37 41 -35 54 6 45 17 -4 39 -7 48 -7z m479 -98 c0 -5
-5 -10 -11 -10 -5 0 -7 5 -4 10 3 6 8 10 11 10 2 0 4 -4 4 -10z m49 -69 c12
-38 21 -82 21 -97 0 -28 0 -28 -18 -8 -11 11 -22 26 -25 34 -4 12 -6 11 -6 -2
-1 -10 -5 -18 -10 -18 -13 0 -21 27 -20 68 l1 37 9 -34 c9 -31 11 -32 24 -15
7 10 10 23 7 29 -4 5 -7 19 -8 30 -1 11 -5 29 -9 39 -6 13 -5 17 2 13 6 -4 20
-38 32 -76z m-1119 -620 c1 -33 -11 3 -45 134 -76 289 -102 401 -108 450 -4
28 29 -89 73 -260 43 -171 79 -316 80 -324z m1103 462 c3 -24 1 -43 -4 -43 -5
0 -9 11 -9 24 0 13 -5 26 -11 28 -7 2 -9 13 -4 27 9 31 21 15 28 -36z m55 -78
l-3 -50 -16 45 c-12 34 -13 52 -6 75 l10 29 9 -24 c5 -13 8 -47 6 -75z m-1
-87 c-3 -7 -5 -2 -5 12 0 14 2 19 5 13 2 -7 2 -19 0 -25z m-1116 -448 c11 -46
18 -85 16 -87 -4 -3 -47 157 -47 173 0 24 14 -15 31 -86z m66 -282 c-3 -8 -6
-5 -6 6 -1 11 2 17 5 13 3 -3 4 -12 1 -19z m10 -40 c-3 -8 -6 -5 -6 6 -1 11 2
17 5 13 3 -3 4 -12 1 -19z"/>
<path d="M5370 1530 c0 -5 5 -10 11 -10 5 0 7 5 4 10 -3 6 -8 10 -11 10 -2 0
-4 -4 -4 -10z"/>
<path d="M4568 2795 c-3 -16 -1 -25 7 -25 8 0 10 9 7 25 -2 14 -6 25 -7 25 -1
0 -5 -11 -7 -25z"/>
<path d="M5555 1720 c3 -5 8 -10 11 -10 2 0 4 5 4 10 0 6 -5 10 -11 10 -5 0
-7 -4 -4 -10z"/>
<path d="M5960 1151 c0 -12 5 -21 10 -21 6 0 10 6 10 14 0 8 -4 18 -10 21 -5
3 -10 -3 -10 -14z"/>
<path d="M2845 4600 c-3 -5 3 -10 14 -10 12 0 21 5 21 10 0 6 -6 10 -14 10 -8
0 -18 -4 -21 -10z"/>
<path d="M4100 4542 c0 -4 11 -9 25 -10 14 -1 25 3 25 8 0 6 -11 10 -25 10
-14 0 -25 -4 -25 -8z"/>
<path d="M4145 4451 c-3 -6 -1 -11 6 -11 22 0 -4 -18 -41 -28 l-35 -10 40 -1
c56 -1 72 11 52 39 -9 13 -17 17 -22 11z"/>
<path d="M3988 4403 c7 -3 16 -2 19 1 4 3 -2 6 -13 5 -11 0 -14 -3 -6 -6z"/>
<path d="M3875 4383 c-38 -20 -36 -18 -29 -36 3 -9 18 -18 32 -20 l27 -4 -29
-2 -29 -1 27 -21 c14 -11 30 -18 35 -15 5 3 7 -4 4 -15 -4 -16 -2 -20 8 -17 8
3 15 9 15 14 5 31 18 54 29 50 7 -2 16 -2 20 2 3 4 12 7 18 8 7 0 20 2 30 2
10 1 15 7 12 12 -4 6 -15 8 -26 5 -11 -4 -19 -2 -19 4 0 6 18 11 40 11 23 0
40 5 40 11 0 6 -7 8 -15 5 -9 -3 -41 1 -72 9 -70 18 -80 18 -118 -2z m68 -4
c-8 -8 -16 -8 -30 0 -16 9 -14 10 12 11 21 0 26 -3 18 -11z m-43 -25 c0 -2
-12 -4 -27 -4 -21 0 -24 3 -14 9 13 8 41 5 41 -5z"/>
<path d="M4028 4393 c7 -3 16 -2 19 1 4 3 -2 6 -13 5 -11 0 -14 -3 -6 -6z"/>
<path d="M4205 4390 c3 -5 8 -10 11 -10 2 0 4 5 4 10 0 6 -5 10 -11 10 -5 0
-7 -4 -4 -10z"/>
<path d="M4147 4383 c-12 -11 -8 -23 8 -23 8 0 15 7 15 15 0 16 -12 20 -23 8z"/>
<path d="M3798 4353 c6 -2 18 -2 25 0 6 3 1 5 -13 5 -14 0 -19 -2 -12 -5z"/>
<path d="M3760 4272 c0 -5 10 -14 23 -20 21 -10 20 -11 -11 -11 -18 -1 -31 -5
-27 -11 3 -5 12 -7 19 -4 19 7 15 -29 -4 -37 -11 -5 -8 -10 12 -19 15 -7 25
-16 23 -21 -3 -4 2 -15 12 -24 14 -14 14 -18 2 -26 -20 -12 103 -12 136 1 23
9 25 13 15 25 -14 17 -3 24 46 29 16 2 32 4 36 5 3 0 1 12 -5 26 -10 21 -17
24 -41 19 -24 -5 -28 -3 -23 10 5 11 1 16 -13 16 -11 0 -20 -4 -20 -10 0 -5
-4 -10 -10 -10 -5 0 -10 6 -10 14 0 9 -8 12 -24 9 -13 -3 -27 1 -31 7 -5 9 -1
10 16 6 13 -3 18 -3 12 0 -7 3 -13 12 -13 20 0 18 -9 18 -31 -2 -16 -15 -20
-15 -41 0 -24 17 -48 21 -48 8z m80 -142 c0 -5 -2 -10 -4 -10 -3 0 -8 5 -11
10 -3 6 -1 10 4 10 6 0 11 -4 11 -10z"/>
<path d="M4070 4200 c-8 -5 -11 -12 -8 -16 10 -9 38 3 38 16 0 12 -10 13 -30
0z"/>
<path d="M3550 4175 c7 -8 17 -15 22 -15 6 0 5 7 -2 15 -7 8 -17 15 -22 15 -6
0 -5 -7 2 -15z"/>
<path d="M3530 4147 c8 -8 26 -18 40 -22 32 -9 25 -2 -20 20 -27 13 -32 14
-20 2z"/>
<path d="M1765 4111 c-3 -5 -1 -12 4 -15 5 -3 11 1 15 9 6 16 -9 21 -19 6z"/>
<path d="M1860 4110 c0 -5 5 -10 12 -10 6 0 3 -9 -7 -20 -10 -11 -13 -20 -7
-20 6 0 13 6 15 13 4 9 8 8 16 -3 9 -13 12 -11 17 8 5 18 9 20 20 11 11 -9 14
-8 14 3 0 8 -6 15 -13 15 -7 0 -25 3 -40 7 -16 4 -27 2 -27 -4z"/>
<path d="M1815 4090 c-18 -8 -17 -9 8 -9 16 -1 26 3 22 9 -3 6 -7 10 -8 9 -1
0 -11 -4 -22 -9z"/>
<path d="M1715 4071 c-7 -12 12 -24 25 -16 11 7 4 25 -10 25 -5 0 -11 -4 -15
-9z"/>
<path d="M1770 4069 c0 -5 5 -7 10 -4 6 3 10 8 10 11 0 2 -4 4 -10 4 -5 0 -10
-5 -10 -11z"/>
<path d="M1782 4046 c-18 -6 -30 -15 -26 -19 12 -12 31 -8 55 13 27 22 19 24
-29 6z"/>
<path d="M1586 3985 c4 -8 8 -15 10 -15 2 0 4 7 4 15 0 8 -4 15 -10 15 -5 0
-7 -7 -4 -15z"/>
<path d="M1551 3953 c-7 -8 -11 -16 -8 -19 2 -2 10 2 17 11 17 20 9 27 -9 8z"/>
<path d="M1740 3960 c0 -5 5 -10 10 -10 6 0 10 5 10 10 0 6 -4 10 -10 10 -5 0
-10 -4 -10 -10z"/>
<path d="M1445 3939 c-4 -6 -5 -12 -2 -15 2 -3 7 2 10 11 7 17 1 20 -8 4z"/>
<path d="M1750 3899 c0 -5 5 -7 10 -4 6 3 10 8 10 11 0 2 -4 4 -10 4 -5 0 -10
-5 -10 -11z"/>
<path d="M1690 3871 c0 -5 -10 -12 -22 -14 -22 -4 -23 -4 -1 -6 17 -1 20 -6
16 -23 -5 -23 -5 -23 10 -3 18 22 22 55 7 55 -5 0 -10 -4 -10 -9z"/>
<path d="M1311 3784 c-32 -35 -38 -62 -6 -30 9 9 20 16 25 16 7 0 22 41 17 46
-1 2 -17 -13 -36 -32z"/>
<path d="M5688 3753 c7 -3 16 -2 19 1 4 3 -2 6 -13 5 -11 0 -14 -3 -6 -6z"/>
<path d="M5764 3715 c8 -16 19 -42 24 -56 7 -16 20 -28 36 -31 38 -7 32 7 -24
65 -42 43 -48 47 -36 22z"/>
<path d="M1240 3711 c0 -6 5 -13 10 -16 6 -3 10 1 10 9 0 9 -4 16 -10 16 -5 0
-10 -4 -10 -9z"/>
<path d="M595 3545 c-27 -6 -64 -19 -82 -28 -18 -10 -48 -17 -67 -17 -20 0
-50 -6 -68 -14 -59 -25 -168 -37 -198 -21 -17 9 -31 10 -41 4 -8 -5 -26 -9
-41 -9 -38 0 -74 -18 -87 -44 -8 -15 -11 -302 -9 -1053 l3 -1032 82 123 c45
67 103 167 128 222 26 54 58 124 72 154 14 30 62 110 106 177 44 68 96 163
117 215 21 51 57 138 80 193 23 55 53 132 67 170 14 39 34 88 44 110 10 22 36
87 59 145 22 58 88 201 147 318 58 117 103 215 100 218 -4 4 -44 -1 -91 -11
-46 -10 -95 -15 -110 -11 -39 10 -76 66 -83 126 -9 81 -27 90 -128 65z"/>
<path d="M5625 3510 c3 -5 8 -10 11 -10 2 0 4 5 4 10 0 6 -5 10 -11 10 -5 0
-7 -4 -4 -10z"/>
<path d="M12 918 c-7 -7 -12 -28 -12 -47 l0 -36 20 25 c31 40 24 90 -8 58z"/>
<path d="M1291 373 c-18 -19 -10 -25 12 -8 10 7 15 15 10 18 -4 3 -14 -2 -22
-10z"/>
<path d="M1340 359 c0 -5 5 -7 10 -4 6 3 10 8 10 11 0 2 -4 4 -10 4 -5 0 -10
-5 -10 -11z"/>
<path d="M1354 324 c-14 -21 -15 -27 -4 -34 17 -10 40 -2 40 15 0 7 3 20 6 29
10 27 -24 19 -42 -10z"/>
<path d="M1300 319 c0 -5 5 -7 10 -4 6 3 10 8 10 11 0 2 -4 4 -10 4 -5 0 -10
-5 -10 -11z"/>
<path d="M1380 176 c0 -9 7 -16 16 -16 9 0 14 5 12 12 -6 18 -28 21 -28 4z"/>
<path d="M1000 154 c-16 -40 -7 -49 13 -15 11 19 14 32 7 36 -5 3 -15 -6 -20
-21z"/>
</g>
</svg>
